<svg xmlns="http://www.w3.org/2000/svg" viewBox="0 0 483.47 328.43"><defs><style>.a{fill-rule:evenodd;}</style></defs><title>auto-frelik</title><path class="a" d="M359.44,487.16c2.83-2.47,8.66-8.49,11.89-11.64,3.61-3.52,8.29-8.43,11.67-11.45,2.59-2.3,5-5.25,7.75-7.74,5.23-4.76,10.44-10.39,15.61-15.37,2.7-2.59,5.12-5.07,7.88-7.62,1.87-1.73,6.32-6.88,7.84-7.68V553.2l64-.07,0-275.81a16.84,16.84,0,0,0-3.38,3.2c-1.36,1.62-5.09,4.82-6.85,6.56-1.11,1.09-2.1,2.27-3.19,3.28-2.24,2.06-4.68,4.23-6.77,6.42l-6.66,6.51c-1.93,1.67-4,4.24-6.65,6.53-2.33,2-4.36,4.4-6.67,6.51-1.2,1.1-2.22,2.17-3.4,3.31l-10,9.63c-1.15,1.09-2.14,2.32-3.3,3.4l-33.47,32.44c-1.25,1.24-2.1,2.11-3.23,3.24-2.3,2.3-3.93,3.56-6.67,6.51-2.12,2.28-4.59,4.17-6.74,6.44-1.3,1.37-2.13,2.13-3.36,3.35s-2.24,2.27-3.41,3.29c-2.33,2-4.36,4.46-6.65,6.53L359,401c-4.46,4-8.68,8.65-13.43,12.93-1.17,1-2.15,2.29-3.3,3.4l-26.75,26c-3.95,3.81-9.67,9.67-13.41,13-1.14,1-2.1,2.2-3.19,3.28-2.23,2.2-4.62,4.18-6.77,6.42-5.35,5.56-11.36,11-16.76,16.3a36,36,0,0,0-3.2,3.36,31.21,31.21,0,0,0,3.48,3.54c7.47,7.42,15.86,16.27,23.43,24l16.75,17.24c.59.58,1.13,1,1.75,1.72s1.11,1,1.65,1.58c1.15,1.19,2.15,2.21,3.27,3.44,4.11,4.53,9.25,9.1,13.47,13.82,2.31,2.58,2.07,2.32,4.49,2.3,27-.24,54.25.28,81.27,0-1-1.8-14.63-15.43-17.7-18.85-4.32-4.79-9.21-9.61-13.51-14.24Z" transform="translate(-272.17 -277.26)"/><path class="a" d="M504.25,553.09c.59-.3,13.45-15,14.91-16.67l28.46-32.35a17.89,17.89,0,0,1,1.29-1.48l6.13-7.07c.44-.53.87-.87,1.33-1.44,2.45-3,6-6.71,8.63-9.86,2.28-2.78,2.74-1.93,2.72-5.34V447h29.64l3.45-3.94c2.47-2.44,8.1-9.3,10.75-11.9l7.11-7.92c2.18-2.73,8.31-8.9,10.64-11.79l14.27-15.79c1.19-1.23,2.4-2.86,3.57-4.06l3.53-3.87c.59-.73,1.18-1.16,1.78-1.91,1-1.26,1.48-1.46,1.83-2.26H567.83c0-14.24-.34-31.17-.11-45.08H694.65l16.79-19c1.24-1.3,2.19-2.52,3.37-3.81l33.92-38.31-244.5-.06Z" transform="translate(-272.17 -277.26)"/><path class="a" d="M435.64,593.1c.8,7.38,2.94,10.65,10.16,11.86,6.14,1,15.14.73,21.61.52,7.16-.23,13.62-.48,16.77-5.32,2.64-4.06,2.49-14.12,2.05-19.71-.57-7.16-2.87-11.18-9.81-12.32-3.49-.57-17.43-.32-22-.32-7.43,0-14.15,0-17.12,5.17-2.09,3.64-2.24,15.12-1.7,20.12m17.11-16c3.6-.34,7.72-.2,11.42-.2,9.22,0,11.47-.29,10.62,13-.27,4.27-1.1,5.82-5.52,6.26-3.67.37-7.8.29-11.58.29-9.39,0-11.49-.23-10.63-13C447.35,579,448.41,577.53,452.75,577.12Z" transform="translate(-272.17 -277.26)"/><path class="a" d="M586.2,590.59c2.31-1.74,7-.05,7-11.82,0-14.29-10.8-11.48-25.67-11.48-6,0-12.43-.22-18.46,0l.08,37.74,10.61-.09,0-9.57c26.94-.13,21.27-1,22.21,9.66l10.8-.1c.2-2,.16-8.2-.3-10-.87-3.35-3-3.55-6.28-4.38m-26.39-14c3.88-.38,9.64,0,13.72,0,6.32,0,8.86-.72,8.87,4.76,0,2.48-.31,4.07-2.43,4.59s-18.56.44-20.22.17Z" transform="translate(-272.17 -277.26)"/><polygon class="a" points="340.4 298.66 368.62 298.63 368.55 290.03 329.65 290.08 329.71 327.79 368.62 327.77 368.55 319.16 340.41 319.16 340.41 312.57 366.77 312.54 366.71 305.06 340.41 305.05 340.4 298.66"/><path class="a" d="M332,568.21c0,7-.81,24.2.94,29.67,2.93,9.17,14,7.71,23,7.71,10.15,0,20,1.09,22.86-7.89,1.56-4.85.94-23.05.87-29.57l-11.4.08c0,6.75,0,13.51,0,20.27,0,8.5-1.65,8-12.56,8-10.55,0-12.33.44-12.34-8.23,0-6.67-.06-13.37,0-20.12Z" transform="translate(-272.17 -277.26)"/><path class="a" d="M289.21,598.28l24.2,0c.87.89,2.9,5,3.66,6.33h12.77c-.32-1.06-9.45-16.22-10.29-17.68l-10.2-17.44H293.51L277.66,596c-.91,1.46-1.72,2.89-2.6,4.33a43,43,0,0,0-2.51,4.33h12.87Zm12-21,8,13.6-15.89,0Z" transform="translate(-272.17 -277.26)"/><path class="a" d="M751.34,569.52c.88-.94,1.44-1.46,2.18-2.21l-13.28,0c-2.11,0-2.41.85-4.58,3.19-2.72,2.94-6.83,6.73-9.87,9.78-.91.91-.9,1.19-2.66,1.19h-4V567.31l-10.71,0v37.77l10.7-.06V590.72c4.82-.05,5-.66,7.46,1.9l7.2,6.66c.94.78,1.47,1.44,2.37,2.25,3.12,2.79,3.14,3.52,5.66,3.52l13.77,0c-.36-.65-17.5-15.17-19.21-16.66a19.39,19.39,0,0,1-2.62-2.43Z" transform="translate(-272.17 -277.26)"/><path class="a" d="M515.65,583.42c0-2.13-.29-5.57.16-7.5l26.19-.06,0-8.57-37,.06.06,37.7,10.65,0V592.26c2.09-.48,20.78,0,25-.18l0-8.65Z" transform="translate(-272.17 -277.26)"/><path class="a" d="M385.72,577.53h16.51l.07,27.74,11.32-.09V577.54l16.47-.06v-9.27c-2.32-.34-43.47-.21-44.4.06Z" transform="translate(-272.17 -277.26)"/><path class="a" d="M648.57,605.05l34.71,0,0-9.5-23.83.07c-.86-4.08.44-22.07-.21-28.28l-10.66.05Z" transform="translate(-272.17 -277.26)"/><polygon class="a" points="416.65 327.79 427.3 327.73 427.25 290.03 416.59 290.08 416.65 327.79"/><path class="a" d="M722.08,541.77c1.69,14.8,20.12,17.93,28.73,9.18a15.33,15.33,0,0,0,4.23-11.5c-1.16-13.17-18.23-19.38-28.82-9.15a14.36,14.36,0,0,0-4.14,11.47m13.79-13.25c7.72-1.66,14.41,3.6,15.67,9.59,1.61,7.61-4.19,13.3-10.42,14.46a13.24,13.24,0,0,1-15.57-9.51C724,536.4,728.54,530.1,735.87,528.52Z" transform="translate(-272.17 -277.26)"/><path class="a" d="M731.16,548.74h3.68v-6.58c4.12-1,5.18,4.08,7,6.53l4.31,0a42.08,42.08,0,0,0-2.44-3.93c-.73-1.09-1.73-2.73-3.15-3.11,5.47-1.17,5.1-5.77,3.14-7.77s-9.25-1.39-12.54-1.38Zm3.66-9.3,0-4.31c2.24,0,6.39-.58,6.52,2C741.5,540,737.14,539.44,734.82,539.44Z" transform="translate(-272.17 -277.26)"/></svg>