<svg xmlns="http://www.w3.org/2000/svg" viewBox="0 0 438.04 424.31"><defs><style>.a{fill:#231f20;}.a,.b,.c{fill-rule:evenodd;}.b{fill:#00a551;}.c{fill:#fff;}</style></defs><title>boll</title><path class="a" d="M383.24,611.61,380.89,626h6.59c6.12,0,9.41-3.29,10.12-7.06.94-4-1.88-7.29-7.06-7.29ZM388.89,577,387,589.72h4c6.59,0,8.94-2.11,10.12-6.59,0-2.58-.47-5.88-7.06-6.11ZM360.42,555.6h44c16.24,0,29.42,10.83,28.48,25.18-1.41,16.18-12.31,18.9-15.3,20.21,7.53,1.65,15.06,9.91,12.47,23.33C427.25,638.2,412,647.85,392,647.85H345.12Zm184,92.25,16-92.25h35.07l-11.06,63.77h26.12l-5.18,28.48ZM494.8,582.57c8.48,0,14,8.39,12.31,18.68s-10,18.68-18.46,18.68-14-8.39-12.32-18.68S486.32,582.57,494.8,582.57Zm2.54-29.05c29.72,0,47.73,20.28,44.72,47.35s-26.69,49-55.21,48.87-46.2-18.57-44.72-46.94S467.62,553.53,497.34,553.52Zm120.52,94.33,16-92.25h35.06l-11.06,63.77H684l-5.18,28.48Z" transform="translate(-295.63 -225.43)"/><path class="b" d="M514.64,225.43c121,0,219,70.88,219,158.31S635.6,542,514.64,542s-219-70.87-219-158.3,98.05-158.31,219-158.31" transform="translate(-295.63 -225.43)"/><path class="c" d="M525.87,235.76c80.33,3.53,181.56,44.4,196.36,133.18,8.45,66.23-42.05,115.79-98.18,140.69-48.85,20.43-99.35,25.83-152,19-70.93-9.86-152.67-53.32-165.35-130.12C295,306.23,393.88,249.62,472.09,238.82a374,374,0,0,1,53.78-3.06" transform="translate(-295.63 -225.43)"/><path class="b" d="M593.52,257.41c53.79,19,101.94,46.74,117.2,105.69,9.16,47.68-15,87.38-52.61,115.09-46.27,34.06-108.51,46.51-165.58,42.28-73-5.17-161.13-43.92-175.69-123.31C308.86,311,393.41,264,466.46,249.9c13.85-1.88,28.89-3.76,43-3.76,27.95-1.88,57.31,4.46,84.08,11.27" transform="translate(-295.63 -225.43)"/><path class="a" d="M423.92,395.39h18.32l4.69,32.88H429.32c-11,0-17.62-7-19.26-15.5-.94-6.81,3.05-17.38,13.86-17.38m-6.82-76.57h13.16l4.46,28.66H417.34c-9.16,0-13.15-7.52-14.09-14.8C402.78,325.16,409.82,318.82,417.1,318.82ZM400.66,270.2h95.13l31,189.31L563.2,270.2h79.85L614.87,412.3l63.65.47L667.24,477.6H421.1c-51.91,0-80.33-23-84.56-61.54-1.87-17.62,10.57-38.52,30.77-43-28.18-8.22-37.58-27.48-35.23-53.79C334,293.93,361.68,270.2,400.66,270.2Z" transform="translate(-295.63 -225.43)"/><path class="c" d="M433.51,402.77h18.32l4.7,32.88H438.91c-11,0-17.61-7-19.26-15.5-.94-6.81,3.06-17.38,13.86-17.38M426.7,326.2h13.15l4.46,28.66H426.93c-9.16,0-13.15-7.52-14.09-14.8C412.37,332.54,419.42,326.2,426.7,326.2Zm-16.44-48.62h95.12l31,189.31,36.41-189.31h79.86l-28.19,142.1,63.65.47L676.84,485H430.69c-51.9,0-80.32-23-84.55-61.54-1.88-17.62,10.57-38.52,30.77-43-28.19-8.22-37.58-27.48-35.23-53.79C343.55,301.31,371.27,277.58,410.26,277.58Z" transform="translate(-295.63 -225.43)"/><path class="a" d="M719,234.61a12.21,12.21,0,1,1-12.21,12.21A12.23,12.23,0,0,1,719,234.61m-3.77,11.13h4.29a6.36,6.36,0,0,0,2.14-.29,2.31,2.31,0,0,0,1.18-.9,2.54,2.54,0,0,0,.4-1.36,2.25,2.25,0,0,0-.78-1.76,3.63,3.63,0,0,0-2.46-.69h-4.77Zm-2,8.43v-15.1h6.69a8.91,8.91,0,0,1,3.07.41,3.38,3.38,0,0,1,1.68,1.43,4.3,4.3,0,0,1,.63,2.28,3.83,3.83,0,0,1-1,2.71,5.33,5.33,0,0,1-3.22,1.4,5.21,5.21,0,0,1,1.21.75,10.71,10.71,0,0,1,1.66,2l2.63,4.11H724L722,251c-.59-.91-1.07-1.6-1.45-2.08a4.52,4.52,0,0,0-1-1,2.91,2.91,0,0,0-.91-.4,6,6,0,0,0-1.12-.07h-2.31v6.7ZM719,232.86a14,14,0,1,1-14,14A14,14,0,0,1,719,232.86Z" transform="translate(-295.63 -225.43)"/></svg>