<svg xmlns="http://www.w3.org/2000/svg" viewBox="0 0 1923.88 158.73"><defs><style>.a{fill:#fff;}.b{fill:#e9ff00;}</style></defs><title>fluo</title><path class="a" d="M0,67H284l178.86-2.12,70-2.36,103.28-3.59,70.11-2.44,16.24-.57,78.83-4.14,66.19-3.58,15.28-.82L891,47l52,30.09,41,22.19,47.87,24.8L1043,130l7,3.24,14.06,6.74,10.91,5,7,3,5,1h17.31l31.37-2.18,62.87-5,108.52-8.66,53.1-5.79,88.19-10,81.17-10.08,71.78-9.3,62-8.79,153.19-24,65.83-11,26.78-4.47L1914,49l6-1V158s-384.18.45-786,1c-439.24.6-899.48-3.61-900-1-1,5-235,9-237,0S0,67,0,67Z" transform="translate(3.47 -4.62)"/><path class="a" d="M460-180" transform="translate(3.47 -4.62)"/><polygon class="b" points="3.88 53.76 590.99 40.4 661.36 37.79 714.14 35.19 801.45 29.65 878.66 23.46 923.29 19.55 974.12 14.01 1060.13 77.54 1089.77 99.37 1097.59 105.56 1102.48 108.49 1106.71 111.09 1111.6 113.05 1119.75 114.68 1124.63 114.68 1193.05 112.72 1304.14 105.23 1388.2 98.39 1531.22 81.45 1623.09 67.11 1657.63 61.25 1715.62 50.5 1774.91 38.44 1828.67 25.41 1873.63 14.01 1910.77 3.91 1923.88 0 1923.88 45.28 1824.43 61.9 1717.57 79.17 1621.79 93.18 1478.44 111.75 1317.18 129.99 1125.29 145.3 1104.11 146.61 1090.97 146.61 1085.21 145.09 1078.7 142.7 1046.77 127.38 993.66 100.02 952.29 77.86 911.89 54.41 894.63 44.31 731.73 53.1 594.91 57.86 469.47 62.23 213.4 64.83 3.88 64.18 3.88 53.76"/></svg>