<svg xmlns="http://www.w3.org/2000/svg" viewBox="0 0 283.62 283.63"><defs><style>.a{fill:#fff100;}.a,.b{fill-rule:evenodd;}.b,.c{fill:#231f20;}</style></defs><title>hl-speedway-clutch-plates</title><path class="a" d="M532.25,306.32a135.57,135.57,0,0,1,29.06,7.44l3.59,1.36-.08.19,1.23.5.07-.18,3.57,1.63a136.57,136.57,0,0,1,27.57,16.83l4.67-4.66,25,25L622,359.35a136.38,136.38,0,0,1,15.28,25.81l1.58,3.51-.18.08c.17.4.33.81.5,1.22l.19-.08,1.37,3.68A135.32,135.32,0,0,1,648.3,425h6.6V460.3h-7a135.57,135.57,0,0,1-7.44,29.06L639.11,493l-.19-.08-.5,1.23.18.07L637,497.74a136.57,136.57,0,0,1-16.83,27.57L624.8,530l-25,25L594.88,550a135.85,135.85,0,0,1-25.81,15.28l-3.5,1.59-.08-.19-1.23.5.08.19-3.68,1.37a135.27,135.27,0,0,1-31.4,7.59V583H493.93v-7a135,135,0,0,1-29.06-7.44l-3.59-1.36.08-.19-1.23-.5-.07.18L456.48,565a136.77,136.77,0,0,1-27.56-16.83l-4.67,4.66-25-25,4.94-4.94a135.85,135.85,0,0,1-15.28-25.81l-1.58-3.51.18-.07-.5-1.23-.19.08-1.37-3.68a135.32,135.32,0,0,1-7.59-31.39h-6.6V422h7a135.6,135.6,0,0,1,7.45-29.06l1.36-3.59.19.08.5-1.23-.18-.07,1.63-3.57A135.67,135.67,0,0,1,406,357l-4.66-4.67,25-25,4.94,4.94A135.85,135.85,0,0,1,457.11,317l3.51-1.58.07.18,1.23-.5-.08-.19,3.68-1.37a135.32,135.32,0,0,1,31.39-7.59v-6.6h35.34Z" transform="translate(-371.28 -299.33)"/><path class="b" d="M392.63,386.1a132.24,132.24,0,0,1,18.46-29.4l-4.4-4.4,19.67-19.67,4.62,4.62a132.39,132.39,0,0,1,27.68-16.85L469.53,346a105.05,105.05,0,0,0-51.08,50.52ZM389,487.4a131.61,131.61,0,0,1-7.72-33.84H375V425.74h6.54a132.05,132.05,0,0,1,7.65-31.49L415,404.67a105,105,0,0,0-.4,71.85Zm69.07,74.2a132.47,132.47,0,0,1-29.4-18.46l-4.4,4.4-19.67-19.67,4.62-4.62a132,132,0,0,1-16.85-27.68L418,484.7a105.05,105.05,0,0,0,50.52,51.08Zm101.3,3.65A131.61,131.61,0,0,1,525.51,573v6.23H497.69v-6.54A132.05,132.05,0,0,1,466.2,565l10.42-25.8a105,105,0,0,0,71.85.4Zm74.2-69.07a132.24,132.24,0,0,1-18.46,29.4l4.4,4.4-19.67,19.67L595.2,545a132.39,132.39,0,0,1-27.68,16.85l-10.87-25.61a105.05,105.05,0,0,0,51.08-50.52Zm3.64-101.3a131.71,131.71,0,0,1,7.73,33.84h6.23v27.82h-6.54A132.05,132.05,0,0,1,637,488l-25.8-10.42a105.06,105.06,0,0,0,.39-71.85Zm-69.06-74.2a132.24,132.24,0,0,1,29.4,18.46l4.4-4.4,19.67,19.67L617,359a132.39,132.39,0,0,1,16.85,27.68l-25.61,10.87A105.05,105.05,0,0,0,557.7,346.5Zm-39.64-11.06A132.05,132.05,0,0,1,560,317.27l-10.43,25.8a105,105,0,0,0-71.84-.39L466.83,317a131.62,131.62,0,0,1,33.84-7.73v-6.23h27.82Z" transform="translate(-371.28 -299.33)"/><path class="c" d="M600.66,459.42l2.31-.35a1.55,1.55,0,0,0,.6,1,2,2,0,0,0,1.26.35,2.26,2.26,0,0,0,1.34-.33.73.73,0,0,0,.3-.61.61.61,0,0,0-.16-.44,2,2,0,0,0-.77-.3,12.62,12.62,0,0,1-3.53-1.12,2.25,2.25,0,0,1-1-2,2.41,2.41,0,0,1,.9-1.91,4.15,4.15,0,0,1,2.76-.77,4.93,4.93,0,0,1,2.66.58,3.07,3.07,0,0,1,1.19,1.73l-2.16.41a1.32,1.32,0,0,0-.53-.79,1.94,1.94,0,0,0-1.11-.27,2.58,2.58,0,0,0-1.32.25.56.56,0,0,0-.26.47.53.53,0,0,0,.23.42,8.91,8.91,0,0,0,2.16.65,6.5,6.5,0,0,1,2.57,1,2.13,2.13,0,0,1,.72,1.71,2.62,2.62,0,0,1-1,2.06,4.42,4.42,0,0,1-2.95.86,4.87,4.87,0,0,1-2.82-.72,3.27,3.27,0,0,1-1.35-1.95m-3.34-2.63a2.24,2.24,0,0,0-.52-1.52,1.55,1.55,0,0,0-1.19-.52,1.58,1.58,0,0,0-1.24.55,2.16,2.16,0,0,0-.48,1.49Zm-.14,2.33,2.3.39a3.76,3.76,0,0,1-1.39,1.92,4.13,4.13,0,0,1-2.39.66,3.87,3.87,0,0,1-3.35-1.48,5,5,0,0,1-.86-3,4.79,4.79,0,0,1,1.12-3.38,3.73,3.73,0,0,1,2.86-1.23,3.88,3.88,0,0,1,3.06,1.28,5.75,5.75,0,0,1,1.07,3.93h-5.75a2.32,2.32,0,0,0,.55,1.59,1.75,1.75,0,0,0,1.32.57,1.38,1.38,0,0,0,.91-.29A1.78,1.78,0,0,0,597.18,459.12Zm-6.63-5.95V455H589v3.52a8.44,8.44,0,0,0,0,1.25.46.46,0,0,0,.2.29.65.65,0,0,0,.39.12,2.91,2.91,0,0,0,.93-.22l.19,1.79a4.5,4.5,0,0,1-1.81.34,2.87,2.87,0,0,1-1.12-.21,1.68,1.68,0,0,1-.73-.54,2.26,2.26,0,0,1-.32-.9,11.32,11.32,0,0,1-.07-1.63V455h-1.06v-1.83h1.06v-1.72l2.29-1.36v3.08Zm-8.5,4.55c-.3.09-.76.21-1.4.35a4,4,0,0,0-1.25.4,1,1,0,0,0-.45.81,1.11,1.11,0,0,0,.36.83,1.23,1.23,0,0,0,.92.35,2,2,0,0,0,1.18-.4,1.44,1.44,0,0,0,.55-.77,4.5,4.5,0,0,0,.09-1.12ZM579,455.86l-2.07-.37a3.29,3.29,0,0,1,1.21-1.89,4.36,4.36,0,0,1,2.55-.61,5.62,5.62,0,0,1,2.3.36,2.31,2.31,0,0,1,1,.93,4.64,4.64,0,0,1,.31,2.06l0,2.68a8.85,8.85,0,0,0,.11,1.69,4.77,4.77,0,0,0,.41,1.16h-2.28a5.82,5.82,0,0,1-.22-.67c0-.14-.07-.22-.08-.27a4.08,4.08,0,0,1-1.26.87,3.62,3.62,0,0,1-1.43.29,2.94,2.94,0,0,1-2.11-.73,2.43,2.43,0,0,1-.77-1.84,2.49,2.49,0,0,1,.35-1.31,2.28,2.28,0,0,1,1-.88,7.25,7.25,0,0,1,1.83-.54,12,12,0,0,0,2.23-.57V456a1.24,1.24,0,0,0-.33-1,2,2,0,0,0-1.24-.28,1.59,1.59,0,0,0-1,.25A1.69,1.69,0,0,0,579,455.86Zm-6.36,6v-12h2.3v12Zm-8.73-10v3.42h1.32a6.4,6.4,0,0,0,1.91-.19,1.58,1.58,0,0,0,.75-.59,1.65,1.65,0,0,0,.28-.94,1.52,1.52,0,0,0-.39-1.08,1.63,1.63,0,0,0-1-.54,12.3,12.3,0,0,0-1.74-.08Zm-2.43,10v-12h3.88a14.06,14.06,0,0,1,2.88.18,3.14,3.14,0,0,1,1.73,1.18,3.74,3.74,0,0,1,.69,2.34,3.86,3.86,0,0,1-.4,1.85,3.3,3.3,0,0,1-1,1.19,3.52,3.52,0,0,1-1.26.56,13.17,13.17,0,0,1-2.51.18h-1.57v4.52Zm-12.65-12v4.45a3.39,3.39,0,0,1,2.68-1.33,3.53,3.53,0,0,1,1.44.29,2.37,2.37,0,0,1,1,.76,2.78,2.78,0,0,1,.44,1,9,9,0,0,1,.12,1.73v5.09h-2.3v-4.58a6.76,6.76,0,0,0-.13-1.74,1.11,1.11,0,0,0-.47-.58,1.46,1.46,0,0,0-.84-.22,1.9,1.9,0,0,0-1,.28,1.48,1.48,0,0,0-.66.84,4.64,4.64,0,0,0-.22,1.65v4.35H546.5v-12Zm-4,5.89-2.26.4a1.62,1.62,0,0,0-.52-1,1.56,1.56,0,0,0-1-.34,1.71,1.71,0,0,0-1.37.6,3,3,0,0,0-.51,2,3.48,3.48,0,0,0,.52,2.19,1.69,1.69,0,0,0,1.39.64,1.53,1.53,0,0,0,1.07-.37,2.22,2.22,0,0,0,.59-1.29l2.26.39a4,4,0,0,1-1.35,2.35,4.14,4.14,0,0,1-2.67.8,4,4,0,0,1-3-1.2,5.53,5.53,0,0,1,0-6.7,4.05,4.05,0,0,1,3.08-1.2,4.23,4.23,0,0,1,2.52.68A3.8,3.8,0,0,1,544.78,455.76Zm-9.18-2.59V455H534v3.52a9.25,9.25,0,0,0,0,1.25.47.47,0,0,0,.21.29.61.61,0,0,0,.39.12,2.86,2.86,0,0,0,.92-.22l.2,1.79a4.58,4.58,0,0,1-1.82.34,2.9,2.9,0,0,1-1.12-.21,1.59,1.59,0,0,1-.72-.54,2.12,2.12,0,0,1-.33-.9,11.32,11.32,0,0,1-.07-1.63V455h-1.06v-1.83h1.06v-1.72l2.3-1.36v3.08Zm-8.46,8.7v-1.3a3.53,3.53,0,0,1-1.25,1.11,3.49,3.49,0,0,1-1.63.41,3.16,3.16,0,0,1-1.58-.39,2.25,2.25,0,0,1-1-1.08,4.83,4.83,0,0,1-.31-1.93v-5.52h2.29v4a11.36,11.36,0,0,0,.13,2.25,1.23,1.23,0,0,0,.47.66,1.42,1.42,0,0,0,.85.24,1.84,1.84,0,0,0,1.06-.32,1.66,1.66,0,0,0,.64-.81,9.61,9.61,0,0,0,.17-2.35v-3.68h2.3v8.7Zm-10.4,0v-12H519v12Zm-4.41-4.42,2.34.72a5.3,5.3,0,0,1-1.8,2.94,5.06,5.06,0,0,1-3.18,1,5.17,5.17,0,0,1-3.94-1.63,6.29,6.29,0,0,1-1.54-4.47,6.59,6.59,0,0,1,1.55-4.66,5.32,5.32,0,0,1,4.07-1.65,5,5,0,0,1,3.58,1.3,4.75,4.75,0,0,1,1.23,2.21l-2.4.57a2.48,2.48,0,0,0-2.53-2,2.71,2.71,0,0,0-2.16,1,4.65,4.65,0,0,0-.84,3.1,5,5,0,0,0,.82,3.24,2.69,2.69,0,0,0,2.13,1,2.45,2.45,0,0,0,1.67-.62A3.57,3.57,0,0,0,512.33,457.45Zm-22.78-4.28H492l2.09,6.17,2-6.17h2.38l-3.07,8.38-.55,1.51a5.9,5.9,0,0,1-.58,1.16,2.4,2.4,0,0,1-.63.64,2.64,2.64,0,0,1-.88.39,4.71,4.71,0,0,1-1.18.14,6.24,6.24,0,0,1-1.3-.14l-.2-1.79a5.07,5.07,0,0,0,1,.1,1.42,1.42,0,0,0,1.19-.47,3.07,3.07,0,0,0,.59-1.2Zm-3.42,4.55c-.29.09-.76.21-1.4.35a4.17,4.17,0,0,0-1.25.4,1,1,0,0,0-.45.81,1.11,1.11,0,0,0,.36.83,1.24,1.24,0,0,0,.92.35,2,2,0,0,0,1.18-.4,1.39,1.39,0,0,0,.55-.77,4.5,4.5,0,0,0,.09-1.12Zm-3.08-1.86-2.08-.37a3.29,3.29,0,0,1,1.21-1.89,4.4,4.4,0,0,1,2.56-.61,5.6,5.6,0,0,1,2.29.36,2.34,2.34,0,0,1,1.06.93,4.83,4.83,0,0,1,.3,2.06l0,2.68a9.77,9.77,0,0,0,.11,1.69,4.77,4.77,0,0,0,.41,1.16H486.6c-.06-.15-.13-.37-.22-.67,0-.14-.06-.22-.08-.27a4,4,0,0,1-1.26.87,3.62,3.62,0,0,1-1.43.29,2.9,2.9,0,0,1-2.1-.73,2.6,2.6,0,0,1-.42-3.15,2.21,2.21,0,0,1,1-.88,7.38,7.38,0,0,1,1.83-.54,11.75,11.75,0,0,0,2.23-.57V456a1.24,1.24,0,0,0-.33-1,2,2,0,0,0-1.24-.28,1.56,1.56,0,0,0-.95.25A1.58,1.58,0,0,0,483.05,455.86Zm-13.14,6-2.75-8.7h2.24l1.63,5.71,1.5-5.71h2.21l1.45,5.71,1.66-5.71h2.27l-2.79,8.7h-2.21l-1.5-5.59-1.47,5.59Zm-10-4.51a4,4,0,0,0,.38,2,1.73,1.73,0,0,0,1.56.91,1.69,1.69,0,0,0,1.34-.68,3.12,3.12,0,0,0,.56-2,3.43,3.43,0,0,0-.54-2.17,1.7,1.7,0,0,0-1.38-.66,1.73,1.73,0,0,0-1.37.65A3,3,0,0,0,459.91,457.36Zm6.13,4.51h-2.12V460.6a3.81,3.81,0,0,1-1.26,1.12,3.25,3.25,0,0,1-4-.84,5.91,5.91,0,0,1,0-6.74,3.38,3.38,0,0,1,2.63-1.15,3.25,3.25,0,0,1,2.53,1.21v-4.33H466Zm-12.13-5.08a2.24,2.24,0,0,0-.52-1.52,1.55,1.55,0,0,0-1.19-.52,1.58,1.58,0,0,0-1.24.55,2.16,2.16,0,0,0-.48,1.49Zm-.14,2.33,2.3.39a3.76,3.76,0,0,1-1.39,1.92,4.13,4.13,0,0,1-2.39.66,3.87,3.87,0,0,1-3.35-1.48,5,5,0,0,1-.86-3,4.79,4.79,0,0,1,1.12-3.38,3.73,3.73,0,0,1,2.86-1.23,3.88,3.88,0,0,1,3.06,1.28,5.75,5.75,0,0,1,1.07,3.93h-5.75a2.32,2.32,0,0,0,.56,1.59,1.71,1.71,0,0,0,1.31.57,1.38,1.38,0,0,0,.91-.29A1.78,1.78,0,0,0,453.77,459.12Zm-9.18-2.33a2.24,2.24,0,0,0-.52-1.52,1.55,1.55,0,0,0-1.19-.52,1.58,1.58,0,0,0-1.24.55,2.16,2.16,0,0,0-.48,1.49Zm-.14,2.33,2.3.39a3.76,3.76,0,0,1-1.39,1.92,4.13,4.13,0,0,1-2.39.66,3.87,3.87,0,0,1-3.35-1.48,5,5,0,0,1-.86-3,4.75,4.75,0,0,1,1.13-3.38,3.69,3.69,0,0,1,2.85-1.23,3.88,3.88,0,0,1,3.06,1.28,5.75,5.75,0,0,1,1.07,3.93h-5.75a2.32,2.32,0,0,0,.56,1.59,1.71,1.71,0,0,0,1.31.57,1.38,1.38,0,0,0,.91-.29A1.78,1.78,0,0,0,444.45,459.12Zm-13.06-1.73a3.35,3.35,0,0,0,.58,2.17,1.74,1.74,0,0,0,1.41.7,1.66,1.66,0,0,0,1.33-.64,3.38,3.38,0,0,0,.53-2.12,3.11,3.11,0,0,0-.55-2,1.66,1.66,0,0,0-1.35-.67,1.78,1.78,0,0,0-1.4.65A2.93,2.93,0,0,0,431.39,457.39Zm-2.27-4.22h2.15v1.28a3.2,3.2,0,0,1,1.13-1.06A3.12,3.12,0,0,1,434,453a3.33,3.33,0,0,1,2.57,1.19,4.83,4.83,0,0,1,1.05,3.31,5,5,0,0,1-1.06,3.39,3.31,3.31,0,0,1-2.58,1.21,3,3,0,0,1-1.31-.29,4.42,4.42,0,0,1-1.23-1v4.35h-2.3ZM417.39,458l2.36-.23a2.93,2.93,0,0,0,.86,1.74,2.63,2.63,0,0,0,1.76.56,2.67,2.67,0,0,0,1.75-.5,1.46,1.46,0,0,0,.6-1.16,1.12,1.12,0,0,0-.25-.72,2.06,2.06,0,0,0-.87-.52c-.28-.1-.93-.27-1.93-.52a6.43,6.43,0,0,1-2.72-1.2,3.11,3.11,0,0,1-1.11-2.42,3.15,3.15,0,0,1,.52-1.72,3.35,3.35,0,0,1,1.49-1.22,6,6,0,0,1,2.36-.41,5,5,0,0,1,3.39,1,3.53,3.53,0,0,1,1.19,2.67l-2.43.08a2.06,2.06,0,0,0-.66-1.34,2.4,2.4,0,0,0-1.52-.4,2.71,2.71,0,0,0-1.64.43.9.9,0,0,0-.38.75.91.91,0,0,0,.36.73,6.18,6.18,0,0,0,2.22.81,11.13,11.13,0,0,1,2.6.86,3.34,3.34,0,0,1,1.33,1.22,3.56,3.56,0,0,1,.48,1.91,3.46,3.46,0,0,1-.58,1.93,3.41,3.41,0,0,1-1.62,1.34,6.8,6.8,0,0,1-2.61.44,5.2,5.2,0,0,1-3.49-1A4.54,4.54,0,0,1,417.39,458Z" transform="translate(-371.28 -299.33)"/><path class="c" d="M536.66,513.6l3.14-4.48-3-4.21h2.8l1.54,2.39,1.63-2.39h2.69l-3,4.12,3.22,4.57h-2.8l-1.79-2.69-1.79,2.69Zm-3.41-4.15c-.29.1-.76.21-1.4.35a4.25,4.25,0,0,0-1.25.4,1,1,0,0,0-.45.81,1.11,1.11,0,0,0,.36.83,1.24,1.24,0,0,0,.92.36,2,2,0,0,0,1.18-.41,1.46,1.46,0,0,0,.55-.76,4.56,4.56,0,0,0,.09-1.12Zm-3.08-1.86-2.08-.37a3.29,3.29,0,0,1,1.21-1.89,4.46,4.46,0,0,1,2.55-.61,5.62,5.62,0,0,1,2.3.36,2.26,2.26,0,0,1,1.05.93,4.64,4.64,0,0,1,.31,2.06l0,2.68a9.69,9.69,0,0,0,.11,1.69,4.77,4.77,0,0,0,.41,1.16h-2.28a5.82,5.82,0,0,1-.22-.67c0-.13-.07-.22-.08-.27a4,4,0,0,1-1.26.87,3.62,3.62,0,0,1-1.43.29,2.94,2.94,0,0,1-2.11-.73,2.58,2.58,0,0,1-.41-3.15,2.27,2.27,0,0,1,1-.88,7.25,7.25,0,0,1,1.83-.54,12.82,12.82,0,0,0,2.23-.56v-.24a1.2,1.2,0,0,0-.33-1,2,2,0,0,0-1.24-.29,1.54,1.54,0,0,0-.95.25A1.62,1.62,0,0,0,530.17,507.59Zm-11.93,6v-12h8.24v2h-5.81v2.85h5v2h-5v5.09Zm-10.57.21,3-12.41h1.73l-3,12.41Zm-8.07-.21v-12h2.29v12Zm-4.16-5.07a2.3,2.3,0,0,0-.51-1.53,1.58,1.58,0,0,0-1.2-.52,1.62,1.62,0,0,0-1.24.55,2.21,2.21,0,0,0-.48,1.5Zm-.13,2.33,2.29.38a3.76,3.76,0,0,1-1.39,1.92,4.13,4.13,0,0,1-2.39.66,3.87,3.87,0,0,1-3.35-1.48,5,5,0,0,1-.86-3,4.8,4.8,0,0,1,1.13-3.39,3.69,3.69,0,0,1,2.85-1.23,3.88,3.88,0,0,1,3.06,1.28,5.7,5.7,0,0,1,1.07,3.93H492a2.33,2.33,0,0,0,.56,1.6,1.75,1.75,0,0,0,1.31.57,1.37,1.37,0,0,0,.91-.3A1.79,1.79,0,0,0,495.31,510.86ZM484,513.6v-10h-3.55v-2H490v2h-3.54v10Z" transform="translate(-371.28 -299.33)"/><path class="c" d="M573.83,514.36l1.51-1.66a2.09,2.09,0,0,0,1.28.61,1.52,1.52,0,0,0,1.15-.39,1.54,1.54,0,0,0,.54-1.19,2,2,0,0,0-.59-1.42,1.93,1.93,0,0,0-1.25-.74,1.51,1.51,0,0,0-1.19.36,3.74,3.74,0,0,0-.68.82l-1-1.58a2,2,0,0,0,.81-1.24,1.42,1.42,0,0,0-.39-1.18,1.3,1.3,0,0,0-.9-.5,1.32,1.32,0,0,0-1,.36,1.35,1.35,0,0,0-.49,1,1.88,1.88,0,0,0,.4,1.24l-1.83,1.11a4.76,4.76,0,0,1-.65-1.77,3,3,0,0,1,.27-1.59,4,4,0,0,1,1.1-1.45,3.54,3.54,0,0,1,2.76-1,2.76,2.76,0,0,1,2.31,4,2.75,2.75,0,0,1,1.89-.33,2.9,2.9,0,0,1,1.69,1,3.61,3.61,0,0,1,.89,2.79,4.28,4.28,0,0,1-4.09,3.77,3.67,3.67,0,0,1-2.55-1M568.17,518a2.14,2.14,0,0,0,1.27.93,1.57,1.57,0,0,0,1.29-.28,1.51,1.51,0,0,0,.65-1.11,2.17,2.17,0,0,0-.5-1.48,2,2,0,0,0-1.19-.83,1.57,1.57,0,0,0-1.27.29,1.44,1.44,0,0,0-.67,1.21A2.17,2.17,0,0,0,568.17,518Zm-2.85-4.28a1.46,1.46,0,0,0,.94.64,1.44,1.44,0,0,0,1.06-.3,1.36,1.36,0,0,0,.61-.93,1.45,1.45,0,0,0-.32-1.1,1.42,1.42,0,1,0-2.29,1.69Zm1,2.15a2.71,2.71,0,0,1-1.66-.08,2.6,2.6,0,0,1-1.17-.93,2.89,2.89,0,0,1-.55-2.34,4.44,4.44,0,0,1,4.29-3.13,2.92,2.92,0,0,1,2.07,1.24,2.6,2.6,0,0,1,.52,1.46,2.73,2.73,0,0,1-.4,1.52,3.28,3.28,0,0,1,1.92,0,3.24,3.24,0,0,1,1.47,1.14,3.65,3.65,0,0,1,.74,2.81,3.83,3.83,0,0,1-1.67,2.5,4.29,4.29,0,0,1-2.7.91,3.67,3.67,0,0,1-3.35-3.24A3.07,3.07,0,0,1,566.29,515.89Zm-5.37,6.51a2.55,2.55,0,0,0,1.28,1.28,1.51,1.51,0,0,0,1.33,0,1.36,1.36,0,0,0,.69-.95,2.5,2.5,0,0,0-.41-1.65,2.69,2.69,0,0,0-1.22-1.29,1.45,1.45,0,0,0-1.27.07,1.41,1.41,0,0,0-.73,1A2.19,2.19,0,0,0,560.92,522.4Zm2.18-6.9-1.84,1.28a1.68,1.68,0,0,0-.85-.69,1.27,1.27,0,0,0-.94.14,1.48,1.48,0,0,0-.77,1.16,5.49,5.49,0,0,0,.74,2.7,2.66,2.66,0,0,1,1.39-1.91,3.23,3.23,0,0,1,2.69-.21,4.06,4.06,0,0,1,2.26,2,4.11,4.11,0,0,1,.46,3.12,3.93,3.93,0,0,1-5.21,2.48q-1.69-.69-3.24-3.52t-1.2-4.77a3.94,3.94,0,0,1,2.09-2.8,3.39,3.39,0,0,1,2.35-.4A3.64,3.64,0,0,1,563.1,515.5Zm-10.49,11.82a2.18,2.18,0,0,0,1.14,1.08,1.57,1.57,0,0,0,1.32-.1,1.49,1.49,0,0,0,.79-1,2.14,2.14,0,0,0-.3-1.53,1.9,1.9,0,0,0-1.06-1,1.53,1.53,0,0,0-1.3.11,1.43,1.43,0,0,0-.82,1.11A2.2,2.2,0,0,0,552.61,527.32Zm-2.24-4.64a1.5,1.5,0,0,0,.85.77,1.57,1.57,0,0,0,1.82-1,1.48,1.48,0,0,0-.16-1.14,1.45,1.45,0,0,0-.84-.73,1.35,1.35,0,0,0-1.08.14,1.4,1.4,0,0,0-.74.84A1.47,1.47,0,0,0,550.37,522.68ZM551,525a2.6,2.6,0,0,1-2.67-1.39,2.88,2.88,0,0,1-.22-2.39,4.43,4.43,0,0,1,4.67-2.52,2.9,2.9,0,0,1,1.88,1.51,2.65,2.65,0,0,1,.33,1.52,2.81,2.81,0,0,1-.61,1.45,3.29,3.29,0,0,1,1.9.31,3.09,3.09,0,0,1,1.3,1.33,3.61,3.61,0,0,1,.35,2.88,3.82,3.82,0,0,1-2,2.25,4.22,4.22,0,0,1-2.8.53,3.35,3.35,0,0,1-2.45-1.85,3.51,3.51,0,0,1-.43-1.81A3.09,3.09,0,0,1,551,525Zm-4.94,4.13-1.56-3.79-1,4.83Zm1.69,4.09-.92-2.23-4.53,1.86-.76-1.85,1.89-9,1.79-.73,2.91,7.05,1.37-.57.77,1.86-1.38.57.92,2.23Zm-9.36,3.23-.63-12.74,1.66-.49.61,12.75Zm-1.29-2,.45,2.08-7.87,1.72a5.43,5.43,0,0,1,.28-2.42,15.07,15.07,0,0,1,1.9-3.36,17.27,17.27,0,0,0,1.45-2.33,2.59,2.59,0,0,0,.16-1.48,1.61,1.61,0,0,0-.66-1.07,1.55,1.55,0,0,0-1.2-.16,1.47,1.47,0,0,0-1,.67,2.19,2.19,0,0,0-.17,1.51l-2.29.27a3.73,3.73,0,0,1,.67-2.94,4.24,4.24,0,0,1,2.46-1.39,3.91,3.91,0,0,1,2.93.34,3.14,3.14,0,0,1,1.5,2.12,4.16,4.16,0,0,1,0,1.57,6,6,0,0,1-.57,1.7,14.31,14.31,0,0,1-1.15,1.82c-.57.81-.92,1.34-1.06,1.6a3.47,3.47,0,0,0-.33.72Zm-9,1.78.29,2.11-8,1.13a5.54,5.54,0,0,1,.46-2.39,15.53,15.53,0,0,1,2.15-3.22,16,16,0,0,0,1.61-2.21,2.55,2.55,0,0,0,.28-1.46,1.63,1.63,0,0,0-.58-1.12,1.73,1.73,0,0,0-2.25.35,2.21,2.21,0,0,0-.29,1.49l-2.3.09a3.76,3.76,0,0,1,.89-2.88,4.3,4.3,0,0,1,2.56-1.2,3.93,3.93,0,0,1,2.9.57,3.14,3.14,0,0,1,1.34,2.22,4.14,4.14,0,0,1-.08,1.57,5.94,5.94,0,0,1-.7,1.65,14.34,14.34,0,0,1-1.27,1.73c-.63.77-1,1.27-1.19,1.51a4.9,4.9,0,0,0-.38.7Zm-10.86,3.21-2.29,0-.2-8.68a7.93,7.93,0,0,1-2.92,1.82l-.05-2.1a6.41,6.41,0,0,0,1.92-1.16,4.19,4.19,0,0,0,1.41-1.95l1.86,0Zm-10.45-4.5.22-4.09-3,3.94Zm-.24,4.42.13-2.41-4.89-.26.11-2,5.59-7.35,1.93.1-.41,7.62,1.49.08-.1,2L509,537l-.13,2.41Zm-15.35,1.52c.62-.88,1.06-1.56,1.33-2a16.4,16.4,0,0,0,.81-1.67c.27-.64.5-1.26.68-1.84a15.09,15.09,0,0,0,.43-1.82,15.7,15.7,0,0,0,.22-3.71,25.3,25.3,0,0,0-.8-4.41l1.53.26a15.08,15.08,0,0,1,1.27,4,12.29,12.29,0,0,1,0,4.06,13.48,13.48,0,0,1-1.16,3.51,15.26,15.26,0,0,1-2.73,3.92Zm-1.37-14.48a1.05,1.05,0,0,0-.78,0,1.72,1.72,0,0,0-.77.76,13.06,13.06,0,0,0-1.15,2.79,12.9,12.9,0,0,0-.69,2.83,2.14,2.14,0,0,0,.17,1.17,1.12,1.12,0,0,0,.62.47,1.05,1.05,0,0,0,.78,0,1.78,1.78,0,0,0,.76-.75,12.77,12.77,0,0,0,1.15-2.79,13.1,13.1,0,0,0,.7-2.83,2,2,0,0,0-.18-1.17A1.07,1.07,0,0,0,489.89,526.3Zm.59-1.82a3.29,3.29,0,0,1,2.21,2c.43,1.17.3,2.85-.4,5s-1.57,3.6-2.63,4.3a3.23,3.23,0,0,1-3,.34,3.41,3.41,0,0,1-2.27-2.15c-.41-1.08-.25-2.72.46-4.91s1.57-3.59,2.62-4.29A3.28,3.28,0,0,1,490.48,524.48Zm-9.75,13.19-1.49-.51a15.51,15.51,0,0,1-.54-4.34,13,13,0,0,1,.66-3.94,12.36,12.36,0,0,1,2.22-4,15.61,15.61,0,0,1,2.79-2.61l1.49.51a24.66,24.66,0,0,0-2.84,3.48,15.71,15.71,0,0,0-1.6,3.35,16.15,16.15,0,0,0-.66,2.68,18.72,18.72,0,0,0-.21,2.76C480.55,535.67,480.61,536.53,480.73,537.67Zm-7.32-15.22a2.6,2.6,0,0,0,.34-1.77,1.49,1.49,0,0,0-.77-1.08,1.3,1.3,0,0,0-1.17,0,2.52,2.52,0,0,0-1.12,1.27,2.62,2.62,0,0,0-.38,1.72,1.45,1.45,0,0,0,.77,1,1.4,1.4,0,0,0,1.23,0A2.21,2.21,0,0,0,473.41,522.45Zm-6.91,2.1,2.1.8a1.66,1.66,0,0,0-.09,1.1,1.26,1.26,0,0,0,.65.7,1.45,1.45,0,0,0,1.37,0,5.78,5.78,0,0,0,1.81-2.13,2.74,2.74,0,0,1-2.39-.1,3.22,3.22,0,0,1-1.67-2.09,4.48,4.48,0,0,1,2.7-5.11,3.7,3.7,0,0,1,3,.27,3.74,3.74,0,0,1,2,2.63c.25,1.19-.11,2.75-1.1,4.67s-2.09,3.18-3.26,3.67a3.92,3.92,0,0,1-3.48-.15,3.33,3.33,0,0,1-1.67-1.71A3.62,3.62,0,0,1,466.5,524.55Zm-3.13-3.66,2.22-3.44-4.53,2Zm-2.4,3.72,1.31-2-4.12-2.65,1.09-1.68,8.5-3.6,1.62,1-4.13,6.41,1.25.81-1.09,1.69-1.25-.81-1.31,2ZM459.3,511a1.15,1.15,0,0,0-.74-.26,1.85,1.85,0,0,0-1,.43,13.58,13.58,0,0,0-2.08,2.18,13.91,13.91,0,0,0-1.68,2.39,2.15,2.15,0,0,0-.26,1.15,1.19,1.19,0,0,0,.4.67,1.09,1.09,0,0,0,.74.25,1.77,1.77,0,0,0,1-.42,13.15,13.15,0,0,0,2.08-2.18,13.91,13.91,0,0,0,1.68-2.39,2.15,2.15,0,0,0,.26-1.15A1.11,1.11,0,0,0,459.3,511Zm1.21-1.48a3.26,3.26,0,0,1,1.32,2.69c0,1.25-.74,2.77-2.18,4.53s-2.78,2.79-4,3.06a3.26,3.26,0,0,1-2.88-.76,3.43,3.43,0,0,1-1.34-2.83q0-1.73,2.21-4.41c1.43-1.75,2.77-2.77,4-3A3.23,3.23,0,0,1,460.51,509.51Zm-7.79-4a1.13,1.13,0,0,0-.72-.31,1.8,1.8,0,0,0-1,.35,14,14,0,0,0-2.24,2,13.26,13.26,0,0,0-1.84,2.26,2,2,0,0,0-.34,1.13,1.15,1.15,0,0,0,1.06,1,1.8,1.8,0,0,0,1-.35,19.31,19.31,0,0,0,4.08-4.28,2,2,0,0,0,.34-1.13A1.09,1.09,0,0,0,452.72,505.49ZM454,504.1a3.28,3.28,0,0,1,1.12,2.78c-.1,1.25-.94,2.71-2.51,4.36s-3,2.58-4.22,2.76a3.28,3.28,0,0,1-2.83-1,3.44,3.44,0,0,1-1.12-2.92c.1-1.14.94-2.56,2.52-4.23s3-2.56,4.22-2.75A3.26,3.26,0,0,1,454,504.1Z" transform="translate(-371.28 -299.33)"/><path class="c" d="M533.83,435h26.7c4.36,0,7.52-.78,9.5-2.33a.89.89,0,0,1,.39-.19.77.77,0,0,1,.53.17,1.12,1.12,0,0,1,.31.55,2.77,2.77,0,0,1-.58,2,11.23,11.23,0,0,1-2.23,2.56,10.57,10.57,0,0,1-4.79,2.29,52.92,52.92,0,0,1-10.27.68H520a41.08,41.08,0,0,0-4.74.26l-.61.11a3.88,3.88,0,0,1-.75-.16.49.49,0,0,1-.35-.32c-.14-.55.25-1.29,1.18-2.23a11.14,11.14,0,0,1,3.62-2.33,28.3,28.3,0,0,1,7.84-1.08c3.84-.17,6.44-1.2,7.81-3.05a15.5,15.5,0,0,0,2.4-5.94,55.9,55.9,0,0,0,1.16-9.71c0-1,0-4.63-.08-10.76a74.52,74.52,0,0,1,1-14.93q1.75-9.17,6.72-14.7t11.05-5.54a6.64,6.64,0,0,1,4.92,1.89,13.3,13.3,0,0,1,3,6,25.08,25.08,0,0,1,.71,7.31,45.59,45.59,0,0,1-1.18,8.8,17.34,17.34,0,0,1-1,3.37c-.3.59-.62.89-1,.89a1,1,0,0,1-.77-.41,3.4,3.4,0,0,1-.55-1.25c-.29-1.08-.39-4-.33-8.89a43.2,43.2,0,0,0-.84-10.76,7.86,7.86,0,0,0-1.74-3.56,3.75,3.75,0,0,0-2.81-1.1q-4.77,0-7.73,5.56t-3,15.36c0,.83,0,2.13,0,3.94q0,27.1-10,37.46m-48.4-21q-1.6,13.86-7.81,20.37T459.86,441c-5.11,0-9.3-1-12.56-2.85a13.1,13.1,0,0,1-6.33-8.19q-2.24-8.37,7.09-14.79t25.86-6.39c1.13,0,2.35,0,3.66.12s3.29.25,5.95.5a49.74,49.74,0,0,0-.69-7q-.61-3.74-1.92-8.61c-.91-3.41-1.95-6.74-3.08-10s-2.43-6.48-3.85-9.7a7.3,7.3,0,0,1,2-1.84,8.13,8.13,0,0,1,2.57-.9,27.45,27.45,0,0,1,1.39,3.27c.39,1.13.82,2.58,1.3,4.35a148.4,148.4,0,0,1,3.48,16.37,87.23,87.23,0,0,1,1,14.26c2.14.23,4.43.53,6.89.86s5.6.83,9.43,1.45q-1.59-18.09.42-31.39t4.5-13.3a.67.67,0,0,1,.45.16,1,1,0,0,1,.33.46,22.88,22.88,0,0,1-.74,4.1,54.25,54.25,0,0,0-1.15,7.59,100.77,100.77,0,0,0-.25,12.6q.22,8.06,1.18,20.77a45.77,45.77,0,0,0,9.76,1h.69a1.16,1.16,0,0,1,.68.2,1,1,0,0,1,.41.58c.15.58-.65,1.24-2.4,2a15.37,15.37,0,0,1-5.94,1.1c-.56,0-1.06,0-1.48,0s-.86,0-1.32-.07q1.11,18.63.6,25.07c-.34,4.27-1.3,6.41-2.86,6.41a2.9,2.9,0,0,1-.45,0,1.49,1.49,0,0,1-.3-.09q1.17-5.75-.7-22c-.53-4.47-.89-7.9-1.12-10.32-2-.26-4.81-.71-8.57-1.32S487.24,414.3,485.43,414.05Zm-1.84-.4c-2.29-.43-4.52-.73-6.69-.92s-4.25-.28-6.25-.28a58.34,58.34,0,0,0-14.18,1.48,21.33,21.33,0,0,0-9.15,4.42,16.28,16.28,0,0,0-4.09,5.28,7.31,7.31,0,0,0-.69,5c.62,2.32,2.26,4,4.93,5s6.71,1.56,12.1,1.56q11.9,0,17.74-5.25T483.59,413.65Z" transform="translate(-371.28 -299.33)"/></svg>