<svg xmlns="http://www.w3.org/2000/svg" viewBox="0 0 266.65 261.17"><title>martin-vaculik-logo</title><path d="M373,676.4l-.83.84.3.94Zm3.94-76-.38.12,9.16-40.2L366,563.75l1.22-10.36,5.34-44.61,3.65-31.11,4-.5,11.68-2L396,440.4l88.36-15.29-1.65,13.94,74.47-12.88a11.22,11.22,0,0,1,2.94-.66L609.23,417l3,2.88,1.61-.28-1,.89,11.94,11.39-1.77,42.33,9.59,8.22L630.74,528l-11.08,12.41-10.74,12.46L556.38,562,547,553.53l-45.12,7.81c-1.67.43-3.37.79-5.07,1.08l-25.72,4.45c-1.24.21-2.46.39-3.68.52l-2.2,18.54-88.42,15.29Z" transform="translate(-366 -417.02)" style="fill:#fff;fill-rule:evenodd"/><path d="M501.26,546.92c-1.49.39-3,.72-4.52,1L471,552.35c-14.62,2.53-27.17-2.11-31.49-16.89-1.07-3.63-.81-7.23-.32-11l1.21-9.27.37-.42,7.38-56.51,114.68-19.83a12.46,12.46,0,0,1,1.82-.47L607,430.6l6.16,5.86-1.94,46,3.28-.57,6.45,5.53-1.43,34.08-5.21,5.83-5,.86-.21,5.09L604,539.22l-41.17,7.12-6.29-5.69.14-3.32Z" transform="translate(-366 -417.02)" style="fill:#231f20;fill-rule:evenodd"/><path d="M443.47,500.36l-18.75,3.24-2.3,19.67,18.66-3.22Zm15.82,37.47-4.18,35.32-20.77,3.59,4.18-35.32-18.65,3.23L415.69,580l-20.86,3.61,4.28-35.33-17.43,3,2.53-21.37,17.45-3,2.3-19.68-17.36,3,2.46-21.36,17.45-3,4.1-34.75,22.08-3.82L428.57,482l16.16-2.8,4.09-34.75,22.06-3.82-4.09,34.75L486.26,472,483.7,493.4l-19.47,3.37-2.39,19.69,19.47-3.37-2.52,21.37Z" transform="translate(-366 -417.02)" style="fill:#231f20"/><path d="M544.07,502h1l.19-.22,22.61-3.91.87-20.75Q549,496.59,544.07,502m22.2-51.22,34.33-5.94.38.36-2,47.29,8.6-1.48.39.33L607,515l-.43.48L598,517l-.36,8.72-.41.48-30.34,5.25-.38-.34.37-8.73-60.4,10.45-.37-.34,1-24.48q1.2-1.59,57.94-56.34A1.4,1.4,0,0,1,566.27,450.78Z" transform="translate(-366 -417.02)" style="fill:#e9ff00"/><path d="M529.4,479.79a17,17,0,0,1,2.83,4.74l.07.17.06.17a24.79,24.79,0,0,1,1.31,11.23l-2.07,17.11c-1.13,9.4-7.38,16.91-14.61,22.55a38.65,38.65,0,0,1-17.47,7.38l-23.95,4.14c-13.51,2.34-25.54-2-29.78-15.9-1-3.33-.8-6.67-.39-10.07l1-8.27.35-.39,6.28-52L572.91,439.9l-43,39.81Z" transform="translate(-366 -417.02)" style="fill:#231f20;fill-rule:evenodd"/><path d="M460.33,467.57l87-15.05-21.23,19.64-43,7.44-.82,6.75,7.85-1.53L505,482.25q16.47-2.85,19.75,5.29a16.74,16.74,0,0,1,.91,7.59l-2.07,17.11c-.7,5.84-4.51,11.65-11.56,17.15a30.67,30.67,0,0,1-13.88,5.79l-23.95,4.14c-10.81,1.87-18-1.4-20.66-10.29a17,17,0,0,1-.1-6.75l.69-5.76.35-.39,27.39-4.73.28.28L482,513c-.57,4.72,1.48,6.66,6.18,5.84s7.51-3.81,8.13-9l.28-2.3c.31-2.58-1.12-4.22-4.31-4.91l-3.89.53-33,5.71Z" transform="translate(-366 -417.02)" style="fill:#e9ff00"/></svg>