<svg xmlns="http://www.w3.org/2000/svg" viewBox="0 0 619.32 322.76"><defs><style>.a{fill:none;stroke:#231f20;stroke-miterlimit:22.93;stroke-width:2.73px;}</style></defs><title>mateusz-wojcik-photography</title><path class="a" d="M782.67,625.86H780.6l-13.85,18-13.74-18h-2l14.73,19.25v15h1.85v-15Zm-56.49,34.25V625.86h-2v16.07h-28V625.86h-1.85v34.25h1.85V642.84h28v17.27Zm-61.29-25.74c0,5.52-5.56,7.94-10.79,7.94H643.19V626.84h10.69C659,626.84,664.89,628.86,664.89,634.37Zm2,0c0-6.56-7.53-8.51-13.64-8.51H641.34v34.25h1.85V643.32h10.58C661,643.32,666.86,640,666.86,634.37Zm-67.73-7.78h.33l9.92,22.77H589Zm15,33.52H616l-15.16-34.25h-3.16L582,660.11h1.86l4.69-9.78h21.26Zm-55.72-25.87c0,4.63-4.26,7.63-12.11,7.63H536.21v-15h9.6C552.24,626.84,558.46,628.52,558.46,634.24Zm2.18,25.87-12.87-17.32c5.67,0,12.43-2.23,12.43-8.55,0-6.73-8-8.38-14-8.38H534.36v34.25h1.85V642.84h9.6l12.65,17.27Zm-88.23-17.17c0-9.39,5.57-16.88,17.24-16.88,4,0,8.39,1.21,11.23,4.07l1.53-.54c-3.06-3.29-8.29-4.5-12.76-4.5-12.55,0-19.09,7.69-19.09,17.85,0,10.93,7.31,17.79,20,17.79a27.68,27.68,0,0,0,12.87-2.85V642.49H491.28v1h10.25v14a23.1,23.1,0,0,1-11,2.33C478.74,659.77,472.41,653,472.41,642.94Zm-30.31,0c0,9.38-5.45,16.93-16.36,16.93-11.12,0-16.46-7.55-16.46-16.93s5.34-16.92,16.46-16.92C436.43,626.06,442.1,633.55,442.1,643Zm1.85,0c0-10.44-6.76-17.89-18.21-17.89-12,0-18.32,7.45-18.32,17.89s6.76,17.9,18.32,17.9S444,653.43,444,643Zm-57.14-16.14v-1H361v1h12v33.27h1.85V626.84ZM340,643c0,9.38-5.46,16.93-16.36,16.93-11.13,0-16.47-7.55-16.47-16.93s5.34-16.92,16.47-16.92C334.36,626.06,340,633.55,340,643Zm1.85,0c0-10.44-6.76-17.89-18.21-17.89-12,0-18.32,7.45-18.32,17.89s6.76,17.9,18.32,17.9S341.88,653.43,341.88,643Zm-65.76,17.13V625.86h-2v16.07H246.24V625.86h-2v34.25h2V642.84h27.92v17.27ZM215,634.37c0,5.52-5.57,7.94-10.91,7.94h-10.8V626.84h10.58C208.94,626.84,215,628.86,215,634.37Zm1.85,0c0-6.56-7.53-8.51-13.63-8.51H191.28v34.25h2V643.32h10.47C210.91,643.32,216.8,640,216.8,634.37Z" transform="translate(-189.92 -339.48)"/><path class="a" d="M380.81,481.69c24.1-8.06,44.28-19.9,55-32.2,8.08-9.41,8-9.16,2.62-14.23-4.8-4.62-5.78-7.21-3.27-9.67,2.07-2,4.25-1.76,8.18,1.07,2,1.37,3.92,2.13,4.36,1.68,1.75-1.7.66-23.67-1.42-30.78-6.76-22.66-22.46-40.07-42.2-46.77-13.31-4.49-24.1-1.14-38.06,11.82-24.43,22.5-32.82,57.82-25.63,107,1.31,9,2.84,17.36,3.49,18.48,1,1.94,1.75,1.94,12.65,0A207.15,207.15,0,0,0,380.81,481.69ZM511,591.2c-.66-.47-5-12.58-9.71-26.89-14.5-44.26-33.8-89.1-47.54-110.38l-4.8-7.5L443.19,454c-11,14.13-32.93,27.69-59,36.38-12.1,4-29.66,8.21-34.79,8.24-1.74,0-3.27.53-3.27,1.14,0,2.22,7.42,21.09,12.33,31.42,5.88,12.39,8.5,15.09,14.61,15.25,3.71.1,4.47.58,4.8,2.85.65,4.14-1.86,6.14-7.42,6.14-8.07,0-12.21-3.64-18.75-16.58a258.38,258.38,0,0,1-10.15-24.22l-4.58-13-16.35.36c-19.74.44-43.95-1.55-55.73-4.57S235.55,486.48,228,480.78c-3.49-2.6-6.43-4.56-6.54-4.35s-1,9.68-1.75,21.06-2.4,26.55-3.49,33.71c-1.85,12.52-2.07,13-5,13.37-5.13.59-6-1.78-4.15-11.7,1.64-8.18,4.37-33.88,6.11-56.31.65-8.7.55-10.06-1.74-13.25-3.82-5.33-8.4-16-11-25.41-2.95-10.68-4.15-36.88-2.18-49,3.16-20.35,11.34-33.71,19.52-31.68,4.91,1.23,6.76,5.36,6.32,13.93l-.32,7.5-2.84-6.21c-1.52-3.41-3.27-6.2-3.82-6.2-1.85,0-4.9,6-7.19,13.95-3,10.71-3.93,28.28-2.18,39.26s4.58,21.3,6.1,21.3c2.4,0,.11-48.24-2.51-51.44-2.07-2.55-.54-5.33,2.95-5.33,2.4,0,3.49,1,5,4.43,1.74,3.71,2.07,9.94,2.5,37.81l.44,33.36,4.58,5.25c13.09,14.88,37.19,24.21,69,26.7,17,1.33,38.06.28,37.62-1.87-.11-.72-1.31-8.87-2.61-18.11-7.75-52.78,1.63-90.69,28.68-115.39a89.61,89.61,0,0,1,16.14-11.57c6.87-3.39,8.72-3.78,17.77-3.72,12.33.07,20.51,3,31.08,11,22.36,16.9,35,48.51,30.54,76.2l-1.42,8.7,6.65,10.56c14.29,22.66,34.35,68.13,48.53,109.9,3.16,9.12,6.11,17,6.54,17.6s2.18-1.11,3.82-3.69c4.8-7.55,21.7-41.75,31.73-64,5-11.3,9.71-21.09,10.36-21.73,2.18-2.16,7.09.12,7.86,3.59,4.9,23.1,24.75,80.69,27.8,80.69.55,0,1.31-3.59,1.64-8,3-32.78,8.94-69.34,13.85-85.79a225.3,225.3,0,0,1,28.35-61.22c8.84-13.36,27.37-32.18,40.46-41.14,25.19-17.25,63.36-28.8,94.11-28.43l12.54.16-8.83,1c-49.84,5.76-80.7,19.13-108.94,47.16-22.9,22.67-37.41,49.35-49,89.72-5.45,19-8.29,35-11.88,67.34-2.95,26.22-4.15,31.9-6.87,33.62s-6.22.93-8.73-1.74c-4.58-4.86-13.19-24.82-21.81-50.86-4.69-14.14-8.94-25.71-9.38-25.71s-4,7.31-8.18,16.24c-16.57,36.39-30.31,61.61-36.75,67.55C514.73,592.24,513.2,592.63,511,591.2Z" transform="translate(-189.92 -339.48)"/></svg>