<svg xmlns="http://www.w3.org/2000/svg" viewBox="0 0 621.55 282.42"><defs><style>.a{fill:#004778;}.b{fill:#ed3424;}.b,.c{fill-rule:evenodd;}.c{fill:#fff;}</style></defs><title>mittas</title><path class="a" d="M830.39,315.37V499.64c-2.59,0-5.18.13-7.77.13l-613.44,0c-.08-1.29-.22-2.58-.22-3.87q0-87.26,0-174.5c0-1.94,0-3.89.18-5.83a19.85,19.85,0,0,1,14.07-18.07,44,44,0,0,1,13.38-1.85q282.93,0,565.87,0a50,50,0,0,1,11.16,1.19c8.09,1.85,13.38,6.87,15.81,14.86.37,1.21-.09,2.64,1,3.67" transform="translate(-208.84 -295.65)"/><path class="b" d="M830.39,560.28c-1.38.81-.83,2.34-1.19,3.5-3,9.51-9.37,12.72-20.12,14.17a36.19,36.19,0,0,1-4.66.07q-284.7,0-569.4,0a42.3,42.3,0,0,1-11.49-1.5c-8-2.24-14-8.72-14.27-16.95-.62-19.94-.47-39.88-.08-59.83H822.62c2.59,0,5.18-.09,7.77-.13v60.64" transform="translate(-208.84 -295.65)"/><path class="c" d="M636.2,409.18h0a110.3,110.3,0,0,0-1.22,19l-9.2.22s-3.31.31-5.13-1c-1.55-1.18-1.69-4-1.69-4a70.72,70.72,0,0,1,.71-13,79.74,79.74,0,0,1,3.24-12.79s3.91-8.27,8.43-11.62a13.14,13.14,0,0,1,10.25-2.25s-3.71,14.13-5.39,25.5m146.3,1.88h0a20.67,20.67,0,0,0-4.22-5.82s-5.12-4.34-14.57-7.25c-10.15-3.13-24.58-4.84-24.58-4.84a8.28,8.28,0,0,1-3.17-1.87,4.73,4.73,0,0,1-1-2.76,6.12,6.12,0,0,1,1.31-3.26,8.58,8.58,0,0,1,3.51-2h35.88a6.57,6.57,0,0,0,3.64-1,5.24,5.24,0,0,0,1.42-3.19V368.73H727.66s-16.76,1.87-26,9c-8.26,6.46-9,18.28-9,18.28s1,7.29,5.33,11.88,13.63,6.6,13.63,6.6a62.47,62.47,0,0,0,12.81,2.39,43.51,43.51,0,0,1,11.37,2.1l3.78,1.67s1.51,2.41,1.21,4-2.77,3.48-2.77,3.48S732.62,431,722,431c-10.49,0-25.76-3.73-25.76-3.73a26.56,26.56,0,0,1-5.91,1.61,34.53,34.53,0,0,1-6.41.15,5.64,5.64,0,0,1-4.18-2c-1.58-2.25-1.78-6.4-1.78-6.4L686.08,369H630.16s-12.34,1.1-22.06,5.82c-9.21,4.51-15.78,12.64-15.78,12.64s-9.14,9.86-12.92,20.29c-3.61,10-1.82,20.66-1.82,20.66a27.78,27.78,0,0,1-5.73.79,27,27,0,0,1-5.5-.55,4.9,4.9,0,0,1-3.91-1.8c-1.35-2-1.39-5.91-1.39-5.91l5.5-38.08h16.73a6.86,6.86,0,0,0,3.74-1.29,5.35,5.35,0,0,0,1.32-3.34l1.35-9.9H569.42l3.3-18.71H534.41a7.66,7.66,0,0,0-4.62,2c-1.55,1.66-1.95,5-1.95,5s-6.18,32.72-9.18,52.13c-2.46,16-1.85,19.4-1.85,19.4s-3,.22-5.71.22-5.29-.22-5.29-.22a5.24,5.24,0,0,1-4.08-2.68c-1.15-2.39-.54-7-.54-7l8.37-49.75H470.37a7,7,0,0,0-3.75,1.55A6.86,6.86,0,0,0,465.1,374s-5.05,23.33-7,36.56c-2.06,13.84-1.12,17.59-1.12,17.59H446.39A5.62,5.62,0,0,1,442.1,426c-1.41-2-1.45-6.19-1.45-6.19l12.11-70.67H413.17a18.12,18.12,0,0,0-7.42,1.93,12,12,0,0,0-4.25,5.12s-6.28,10.48-13.66,20.69c-7,9.7-15.18,19.16-15.18,19.16s-2.63,2-4.28,1.35-2.12-3.76-2.12-3.76V349.12H338.09s-3.81.14-6.24,2.18-3.23,5.76-3.23,5.76S311.68,387,293.2,405.24a107.51,107.51,0,0,1-38.11,24.46L258,443.35a6.41,6.41,0,0,0,2.83,1.91,5.12,5.12,0,0,0,3.34-.61,63.14,63.14,0,0,0,8.47-2.58,59.6,59.6,0,0,0,7.82-4,153.31,153.31,0,0,0,23.78-17.56,223.29,223.29,0,0,0,22.66-25.12,206.75,206.75,0,0,0-.1,21.58,137.79,137.79,0,0,0,2.53,18.7s.74,4.49,2.53,6.73a6.06,6.06,0,0,0,4.49,2.08h12.57a22.5,22.5,0,0,0,6.62-.68,10.26,10.26,0,0,0,4.38-2.86A144.51,144.51,0,0,0,378,422.32c11.1-13.35,24.12-32.25,24.12-32.25s-3.85,17.59-4.86,27.52C396.2,428.12,398,431,398,431a26.12,26.12,0,0,0,4.11,7.31,21.92,21.92,0,0,0,6.88,5,97.59,97.59,0,0,0,22.26,2.25A148.86,148.86,0,0,0,457.38,442l.88-6.82a26.86,26.86,0,0,0,5.6,5.58,21.86,21.86,0,0,0,6.51,2.79A69.08,69.08,0,0,0,490,445.73c12.51-.4,27.52-3.71,27.52-3.71l1.08-7.93a30.91,30.91,0,0,0,6.41,7.22,20,20,0,0,0,7.48,3.34,106.53,106.53,0,0,0,22.87,1.22,112.53,112.53,0,0,0,22.9-4.52l.44-7.26a36,36,0,0,0,8,7.59,27.1,27.1,0,0,0,9.17,3.41,78.94,78.94,0,0,0,17.41.68,165.62,165.62,0,0,0,21.58-3.31l1.52-8.58s3.07,5.41,7.69,8.39,10.59,3.5,10.59,3.5A109.15,109.15,0,0,0,674,446a146.77,146.77,0,0,0,21.11-3.73,202.89,202.89,0,0,0,29.08,3.66,165.25,165.25,0,0,0,28.15-1.45,64.34,64.34,0,0,0,15.08-4.5,44,44,0,0,0,11.13-7.85,24,24,0,0,0,4.22-6.57,26.15,26.15,0,0,0,1.51-7.5A25.78,25.78,0,0,0,782.5,411.06ZM466.86,363.21H506a7.44,7.44,0,0,0,4.08-1.64,7.11,7.11,0,0,0,1.66-4.07l1.11-7.7h-39a6.39,6.39,0,0,0-3.71,1.53,8.64,8.64,0,0,0-1.78,4Z" transform="translate(-208.84 -295.65)"/></svg>