<svg xmlns="http://www.w3.org/2000/svg" viewBox="0 0 499.23 268.52"><defs><style>.a{fill:#00a893;}.b{fill:#fff;}.c{fill:none;stroke:#fff;}.d{fill:#ffd300;}.e{fill:#fcb614;}</style></defs><title>motorex-oil-of-switzerland</title><rect class="a" width="499.23" height="268.52"/><path class="b" d="M530.66,372.34h0c-7.19,4.14-20.58,5.41-27.13,6.94s-13.71,4.41-14,11c-.54,12.69,19.77,18.48,35.72,17.78l-1,.13a138.82,138.82,0,0,1-14.16.8h0a97.72,97.72,0,0,1-15.28-1.17,55.85,55.85,0,0,1-5.61-1.28c-15.22-4.38-20.07-12.93-19.86-19.22.19-5.61,5.08-13.44,26.65-15.66s26.85-5.59,27.27-11.41-6.67-11.63-20.2-11.53l0-.22v-.19l.33,0,5.81-.05c1.82,0,3.58,0,5.29.09,1.21.11,2.47.24,3.78.43,10.78,1.52,19,6.08,19,13.52,0,4.81-2.93,8-6.57,10.13m-18.29-26.93c-8.49,0-15.62,0-23.5,1.56v1.81c9.86,1.34,17.91,4.06,18.4,8.24s-5.44,5.29-23.28,6.85c-22.33,1.95-31.29,8.52-31.84,19.79-.71,14.8,25.26,28.13,60.32,28.13s63.47-13.6,63.47-33.14C575.94,361.68,547.42,345.41,512.37,345.41Z" transform="translate(-264.22 -306.42)"/><path class="c" d="M734.7,433.66h0L732.39,430h-1.9v3.64H729v-9h4.08a3.12,3.12,0,0,1,2.26.77,2.55,2.55,0,0,1,.69,1.89,2.4,2.4,0,0,1-1.88,2.53l2.41,3.78Zm2.32-9.17A6.72,6.72,0,1,0,732.27,436,6.72,6.72,0,0,0,737,424.49Z" transform="translate(-264.22 -306.42)"/><path class="b" d="M732.27,436h0a6.72,6.72,0,1,1,6.72-6.72,6.68,6.68,0,0,1-6.72,6.72m5.43-12.14a7.68,7.68,0,1,0,2.24,5.42A7.63,7.63,0,0,0,737.7,423.82Z" transform="translate(-264.22 -306.42)"/><path class="b" d="M732.86,428.65h-2.37v-2.59h2.37a1.81,1.81,0,0,1,1.31.38,1.23,1.23,0,0,1,.31.91c0,.91-.48,1.3-1.62,1.3m3.14-1.3a2.55,2.55,0,0,0-.69-1.89,3.12,3.12,0,0,0-2.26-.77H729v9h1.52V430h1.9l2.31,3.64h1.83l-2.41-3.78A2.4,2.4,0,0,0,736,427.35Z" transform="translate(-264.22 -306.42)"/><path class="b" d="M662.26,477.1h0l16-22.35-12.31-17.24H630V448h30.74v15H630v14.09Zm39.17-22.35,26.66,37.4H705l-15.09-24.47-15.55,24.47H611.18l0,0V422.48h67L690,442.23l11.74-19.75h22.66Z" transform="translate(-264.22 -306.42)"/><path class="b" d="M582,453.32h0c5.38-.09,8.11-2.85,8.11-8.18S587.4,437,582,437H567.47v16.37H582m-66.88,24.56h0c12.07,0,16.37-10.62,16.37-20.56,0-7-2-12.81-5.6-16.42a14.62,14.62,0,0,0-10.77-4.14c-4.63,0-8.37,1.4-11.12,4.15-3.49,3.48-5.25,9-5.25,16.41,0,4.08.71,11.65,5.52,16.46A14.73,14.73,0,0,0,515.14,477.88Zm-106.59,0h0c12.07,0,16.37-10.62,16.37-20.56,0-7-2-12.81-5.6-16.42a14.62,14.62,0,0,0-10.77-4.14c-4.62,0-8.36,1.4-11.12,4.15-3.48,3.48-5.25,9-5.25,16.41,0,4.08.72,11.65,5.52,16.46A14.73,14.73,0,0,0,408.55,477.88ZM609,445.71a19.67,19.67,0,0,1-13.54,18.81l15.72,27.58v0H590l-13.33-24.36h-9.24v24.36H548.63V469.32a35.54,35.54,0,0,1-8.83,15c-6.36,6.36-14.89,9.72-24.66,9.72s-18.31-3.36-24.67-9.72c-6.8-6.81-10.55-16.4-10.55-27a40.07,40.07,0,0,1,5.14-19.8h-13.8v54.63H452.42V437.52h-13.7a39.68,39.68,0,0,1,5,19.8c0,10.62-3.75,20.21-10.55,27-6.36,6.36-14.89,9.72-24.67,9.72s-18.3-3.36-24.66-9.72a35.58,35.58,0,0,1-9.09-15.92v23.73H356.9V445.41L345,492.15H328.57l-12.31-46.93v46.93H298.94V422.48h26.55l11.35,47.65,11.7-47.65H374.8v24c3.84-14.07,15.27-25.88,33.75-25.88,9.78,0,18.31,3.36,24.67,9.72.52.52,1,1.06,1.5,1.61v-9.43H489V432c5.91-6.83,14.68-11.4,26.17-11.4,9.77,0,18.3,3.36,24.66,9.72a35.41,35.41,0,0,1,8.83,15V422.48h34.83c8.64,0,15.23,2.21,19.58,6.56C607,433,609,438.58,609,445.71Z" transform="translate(-264.22 -306.42)"/><path class="b" d="M303.21,519.31h0c0-7.11,2-13.4,10.4-13.4s10.4,6.29,10.4,13.4c0,6.94-1.94,13.41-10.4,13.41s-10.4-6.47-10.4-13.41m-4.85,0c0,9.76,4.85,17.38,15.25,17.38s15.26-7.62,15.26-17.38-4.86-17.38-15.26-17.38S298.36,509.56,298.36,519.31Z" transform="translate(-264.22 -306.42)"/><path class="b" d="M337.45,507.39h5.23v-4.76h-5.23ZM342.26,536V512.8h-4.39V536Z" transform="translate(-264.22 -306.42)"/><rect class="b" x="88.68" y="196.21" width="4.39" height="33.37"/><path class="b" d="M388.62,524.4h0c0-4.95,1.71-9.11,6.93-9.11s6.93,4.16,6.93,9.11-1.71,9.1-6.93,9.1-6.93-4.16-6.93-9.1m6.93-12.3c-7.63,0-11.55,5.09-11.55,12.3s3.92,12.29,11.55,12.29,11.56-5.08,11.56-12.29S403.18,512.1,395.55,512.1Z" transform="translate(-264.22 -306.42)"/><path class="b" d="M421.61,536V515.85H427V512.8h-5.36v-3.7c-.14-2.54,1.29-3.19,3.79-3.19.74,0,1.48.09,2.22.14V502.4a17.92,17.92,0,0,0-3.14-.47c-3.29,0-7.12,1.34-7.26,6.43v4.44h-4.53v3.05h4.53V536Z" transform="translate(-264.22 -306.42)"/><path class="b" d="M450.38,526.25c-.18,7.49,4.9,10.44,11.88,10.44,6.75,0,13.55-2.68,13.55-10.26,0-8.41-8.37-8.41-14.52-10.4-2.91-.92-5.59-1.15-5.59-4.94,0-4,4.48-5.18,7.76-5.18s6.48,1.29,6.66,5H475c0-6.47-5.59-9-11.27-9-6.24,0-12.85,2.69-12.85,9.94,0,7.49,9.15,8.74,14.65,9.94,2.77.55,5.45,1.9,5.45,5.13,0,4.67-4.62,5.78-8.41,5.78-4.48,0-7.21-1.76-7.3-6.47Z" transform="translate(-264.22 -306.42)"/><polygon class="b" points="250.2 206.38 244.42 224.68 244.33 224.68 239.1 206.38 233.42 206.38 227.64 225.05 227.55 225.05 221.96 206.38 217.2 206.38 224.87 229.58 230 229.58 236.01 210.49 236.1 210.49 241.51 229.58 246.5 229.58 254.68 206.38 250.2 206.38"/><path class="b" d="M525.47,507.39h5.22v-4.76h-5.22ZM530.28,536V512.8h-4.39V536Z" transform="translate(-264.22 -306.42)"/><path class="b" d="M538.68,512.66v3.28l4-.05v14.75c0,3.1.23,3.19,1,4.3a4.23,4.23,0,0,0,2.59,1.52,15.55,15.55,0,0,0,3,.23c1,0,2-.23,3-.27V533a9.54,9.54,0,0,1-2.31.28c-1.57,0-2.86-.79-2.86-2.45v-15l5.36.05v-3.28l-5.36.14v-6.34l-4.39,1.39v4.95Z" transform="translate(-264.22 -306.42)"/><polygon class="b" points="312.6 226.53 300.49 226.53 312.13 209.43 312.13 206.38 295.91 206.38 295.91 209.43 307.42 209.43 295.73 226.53 295.73 229.58 312.6 229.58 312.6 226.53"/><path class="b" d="M588,522.18h0c0-3.79,2.17-6.89,5.83-6.89,4.25,0,6,3,5.91,6.89Zm16.36,3.05v-2.17c0-6.43-3.28-10.82-10.21-11-7.35,0-10.77,5.69-10.77,12.48s3,12.11,10.4,12.11c5.55,0,9.61-2.63,10.31-7.9h-4.63c-.5,3.37-2.21,4.71-5.63,4.71-4.49,0-6.15-4.2-5.83-8.27Z" transform="translate(-264.22 -306.42)"/><path class="b" d="M617.9,524.49c0-4.9,1-7.86,6.51-8a5.36,5.36,0,0,1,1.9.23v-4.16c-.51,0-1,0-1.53,0-3.19,0-6.14,1.62-6.79,4.81h-.09V512.8h-4.39V536h4.39Z" transform="translate(-264.22 -306.42)"/><rect class="b" x="369.58" y="196.21" width="4.39" height="33.37"/><path class="b" d="M658.54,521.67h0c-5.51,0-11.28,1.9-11.28,8.41,0,4.53,4.06,6.61,8.09,6.61,3.19,0,5.77-1.24,7.21-4.16h.09c.05,1.07.14,2.08.23,3.15,0,.55.83.32,1.25.32h3c-.14-1.94-.19-3.88-.19-4.9V520c0-6.47-4.71-7.91-9.47-7.91-4.58,0-8.56,1.81-8.79,6.89h4.63c0-2.4,2.12-3.7,4.34-3.7,4.67,0,4.9,2.36,4.9,6.38Zm4,3.05c.09,4.3-.88,8.78-6.06,8.78-2.58,0-4.57-1.43-4.57-4.29,0-3.38,3.56-4.35,6.24-4.49Z" transform="translate(-264.22 -306.42)"/><path class="b" d="M681.28,512.8H677V536h4.39V523.38c0-4.53,1.2-5.54,1.85-6.19a6,6,0,0,1,4.25-1.71c3.7,0,5.31,2.08,5.31,5.91V536h4.4V520c0-7.44-7.17-7.86-8.79-7.86a8.06,8.06,0,0,0-7,4.12h-.1Z" transform="translate(-264.22 -306.42)"/><path class="b" d="M723.57,515.94h-.1c-1.34-2.77-4.25-3.84-7.21-3.84-7.21,0-10.4,6-10.4,12.3,0,6,2.73,12.29,9.62,12.29,3.37,0,6.42-1.15,8-4.39h.1v.23l.14,3.47h4.48c-.09-1.34-.23-2.73-.23-4.11V502.63h-4.39Zm-13.08,8.41c0-4.34,1.29-9.2,6.56-9.2,5,0,6.56,5,6.56,9.2s-1.24,9.29-6.56,9.29C712.1,533.64,710.49,528.7,710.49,524.35Z" transform="translate(-264.22 -306.42)"/><path class="d" d="M469.33,387.27c.19-5.61,5.08-13.44,26.65-15.66s26.85-5.59,27.27-11.41-6.67-11.63-20.2-11.53l0-.22v.24l.15.05c.82.27,7.95,2.77,7.89,8.71-.07,7.06-9.87,8-19.35,8.9-1.21.12-2.41.23-3.59.36-11.85,1.28-18.3,2.09-24.09,5.14-2.87,1.51-8.22,4.33-8.48,12.1-.27,8.1,12.15,15.33,19.52,18.32a89.5,89.5,0,0,0,19.72,5.5,55.85,55.85,0,0,1-5.61-1.28c-15.22-4.38-20.07-12.93-19.86-19.22" transform="translate(-264.22 -306.42)"/><path class="e" d="M503,348.22v0l.33,0Z" transform="translate(-264.22 -306.42)"/><path class="d" d="M561.54,362.21c-8-5.65-21.43-13-47.07-13.95,1.21.11,2.47.24,3.78.43,10.78,1.52,19,6.08,19,13.52,0,4.81-2.93,8-6.57,10.13-7.19,4.14-20.58,5.41-27.13,6.94s-13.71,4.41-14,11c-.54,12.69,19.77,18.48,35.72,17.78l-1,.13,2-.21.41,0c10.49-1.07,25.72-5.1,33.29-10.44,7.13-5,11.41-9.18,12.2-15.52.69-5.55,0-12.24-10.61-19.72" transform="translate(-264.22 -306.42)"/></svg>