<svg xmlns="http://www.w3.org/2000/svg" viewBox="0 0 604.35 200.87"><defs><style>.a{fill:#d1aa67;}.b,.e{fill:#ec1c24;}.c{fill:#231f20;}.d{fill:#fff;}.e{fill-rule:evenodd;}</style></defs><title>neb-engineering</title><rect class="a" width="604.35" height="200.87"/><path class="b" d="M739.92,436.55h14q7.11,0,10-2.52a8.41,8.41,0,0,0,2.92-6.74A7.78,7.78,0,0,0,764,421c-1.92-1.59-5.29-2.4-10.11-2.4H739.92Zm0-34.86h12c4.28,0,7.28-.74,9-2.21a8.11,8.11,0,0,0,2.52-6.41,7.58,7.58,0,0,0-2.52-6.06c-1.67-1.47-4.61-2.19-8.77-2.19H739.92Zm-27.67-34.86h51.42q12.84,0,19.73,6.37A20.58,20.58,0,0,1,790.29,389a19.84,19.84,0,0,1-4.92,13.51c-2.18,2.52-5.38,4.48-9.58,6,6.39,1.53,11.06,4.16,14.08,7.9s4.51,8.44,4.51,14.08a24.35,24.35,0,0,1-3.2,12.43,23.87,23.87,0,0,1-8.79,8.72c-2.32,1.33-5.79,2.3-10.44,2.9a120.53,120.53,0,0,1-12.31,1.22H712.25Zm-89.72,0H696v19h-45.9V400h42.56v18.12H650.07v17.49h47.27v20.1H622.53Zm-103.1,0h25.62l33.31,49.05V366.83h25.93v88.83H578.36l-33.13-48.78v48.78h-25.8Z" transform="translate(-217.59 -333.28)"/><path class="c" d="M753.91,437.64H738.83V417.47h15a28.62,28.62,0,0,1,6.39.63,10.86,10.86,0,0,1,4.42,2,8.76,8.76,0,0,1,2.45,3.17,9.48,9.48,0,0,1,.82,4,10.47,10.47,0,0,1-.83,4.23,9,9,0,0,1-2.47,3.33,10.69,10.69,0,0,1-4.41,2.13,26.29,26.29,0,0,1-6.31.66M741,435.46h12.91a24.36,24.36,0,0,0,5.78-.59,8.56,8.56,0,0,0,3.52-1.66,6.88,6.88,0,0,0,1.9-2.55,8.27,8.27,0,0,0,.64-3.37,7.51,7.51,0,0,0-.62-3.11,6.69,6.69,0,0,0-1.86-2.38,8.58,8.58,0,0,0-3.53-1.58,26,26,0,0,0-5.89-.57H741Zm10.89-32.68H738.83v-19h13.24a23.25,23.25,0,0,1,5.59.58,9.25,9.25,0,0,1,3.89,1.88,8,8,0,0,1,2.19,3,10.11,10.11,0,0,1,.71,3.87,10.93,10.93,0,0,1-.71,4.09,8,8,0,0,1-2.18,3.13h0a9.27,9.27,0,0,1-4,1.9A24.21,24.21,0,0,1,751.89,402.78ZM741,400.6h10.89a21.81,21.81,0,0,0,5.19-.52,7.3,7.3,0,0,0,3-1.41,6,6,0,0,0,1.6-2.31,8.89,8.89,0,0,0,.55-3.29,7.93,7.93,0,0,0-.54-3,5.89,5.89,0,0,0-1.6-2.2h0a7,7,0,0,0-3-1.41,21.54,21.54,0,0,0-5.07-.51H741Zm22.67-32.68H713.34v86.65h46.3c1,0,2.5-.1,4.49-.3s4.61-.51,7.68-.91a42.61,42.61,0,0,0,5.93-1.14,18.32,18.32,0,0,0,4.11-1.62A23.7,23.7,0,0,0,786.6,447a23.27,23.27,0,0,0,3.64-4.72,22.53,22.53,0,0,0,2.29-5.59,25,25,0,0,0,.76-6.29,24.36,24.36,0,0,0-1.07-7.42,17.84,17.84,0,0,0-8.66-10.49,31.11,31.11,0,0,0-8-3L772,408.6l3.48-1.21a27.59,27.59,0,0,0,5.34-2.48,16,16,0,0,0,3.77-3.16h0a18.25,18.25,0,0,0,3.48-5.83,20.09,20.09,0,0,0,1.17-7,20.35,20.35,0,0,0-1.63-8.2,20,20,0,0,0-4.91-6.75,21.2,21.2,0,0,0-8-4.55A36,36,0,0,0,763.67,367.92Zm-51.42-2.18h51.42a37.91,37.91,0,0,1,11.68,1.65,23.19,23.19,0,0,1,8.79,5,22.79,22.79,0,0,1,5.94,24.25,20.5,20.5,0,0,1-3.89,6.51,18.33,18.33,0,0,1-4.28,3.59,25.58,25.58,0,0,1-2.76,1.48,29.92,29.92,0,0,1,5.48,2.35,20,20,0,0,1,9.65,11.73,26.29,26.29,0,0,1,1.19,8.08,27.27,27.27,0,0,1-.84,6.84,24.49,24.49,0,0,1-2.51,6.13,25,25,0,0,1-4,5.17,25.46,25.46,0,0,1-5.2,4h0a20.58,20.58,0,0,1-4.61,1.82,44.77,44.77,0,0,1-6.23,1.21c-3.12.4-5.7.71-7.75.91s-3.67.32-4.7.32H711.16v-91Zm-17.36,2.18H623.62v86.65h72.63V436.65H649V417h42.56V401H649V384.72h45.91Zm-72.36-2.18h74.53V386.9h-45.9v12h42.55v20.3H651.16v15.31h47.27v22.28h-77v-91Zm-78,2.18h-24v86.65h23.62V403.35l34.79,51.22H603.2V367.92H579.45v51.49Zm-25.05-2.18h26.19l31.65,46.6v-46.6h28.11v91H577.79l-31.47-46.34v46.34h-28v-91Z" transform="translate(-217.59 -333.28)"/><path class="c" d="M782.26,489.29v-6.21h12.12v12.7a23.75,23.75,0,0,1-6.15,3.8,17.79,17.79,0,0,1-6.34,1,13.5,13.5,0,0,1-7.37-1.81,11.62,11.62,0,0,1-4.41-5.4,20.22,20.22,0,0,1-1.57-8.22,19.68,19.68,0,0,1,1.71-8.5,12.1,12.1,0,0,1,5-5.48,14.13,14.13,0,0,1,6.94-1.45,16.71,16.71,0,0,1,6.29.9,8.27,8.27,0,0,1,3.46,2.78,13.24,13.24,0,0,1,2.07,4.77l-7.55,1.6a4.92,4.92,0,0,0-1.59-2.6,4.37,4.37,0,0,0-2.84-.9,4.83,4.83,0,0,0-4.11,2.1q-1.53,2.12-1.53,6.67c0,3.23.51,5.53,1.55,6.92a5.08,5.08,0,0,0,4.31,2.07,7,7,0,0,0,2.5-.44,12.89,12.89,0,0,0,2.73-1.52v-2.79ZM740,470.23h7.32l9.52,16.49V470.23h7.41v29.86h-7.41l-9.47-16.4v16.4H740Zm-13.55,0h7.87v29.86h-7.87Zm-19.91,12.14h3.31A10.4,10.4,0,0,0,712,482a2,2,0,0,0,1.27-.94,3.14,3.14,0,0,0,.5-1.74,3,3,0,0,0-.78-2.22,4.17,4.17,0,0,0-2.93-.78h-3.45Zm-7.87,17.72V470.23h13.07a16,16,0,0,1,5.55.74,6.07,6.07,0,0,1,3.1,2.72,9.3,9.3,0,0,1,1.18,4.85,9.42,9.42,0,0,1-.91,4.29,7.61,7.61,0,0,1-2.48,2.93,8.65,8.65,0,0,1-2.75,1.18,7.44,7.44,0,0,1,2,1.1,9.29,9.29,0,0,1,1.25,1.57,11.72,11.72,0,0,1,1.09,1.86l3.81,8.62H714.8l-4.19-9.1a6.94,6.94,0,0,0-1.41-2.3,3,3,0,0,0-1.93-.69h-.69v12.09ZM673,470.23h21v6.38H680.87v4.76H693v6.08H680.87v5.89h13.51v6.75H673Zm-25.6,0h21v6.38H655.27v4.76h12.16v6.08H655.27v5.89h13.51v6.75H647.4Zm-29.45,0h7.32l9.51,16.49V470.23h7.41v29.86h-7.41l-9.46-16.4v16.4H618Zm-13.55,0h7.87v29.86H604.4Zm-17.09,19.06v-6.21h12.13v12.7a23.75,23.75,0,0,1-6.15,3.8,17.85,17.85,0,0,1-6.35,1,13.47,13.47,0,0,1-7.36-1.81,11.7,11.7,0,0,1-4.42-5.4,20.39,20.39,0,0,1-1.56-8.22,19.68,19.68,0,0,1,1.71-8.5,12,12,0,0,1,5-5.48,14.1,14.1,0,0,1,6.94-1.45,16.61,16.61,0,0,1,6.28.9,8.24,8.24,0,0,1,3.47,2.78,13.41,13.41,0,0,1,2.06,4.77l-7.55,1.6a4.91,4.91,0,0,0-1.58-2.6,4.38,4.38,0,0,0-2.85-.9,4.82,4.82,0,0,0-4.1,2.1c-1,1.41-1.53,3.63-1.53,6.67,0,3.23.51,5.53,1.54,6.92a5.08,5.08,0,0,0,4.32,2.07,7,7,0,0,0,2.5-.44,13.39,13.39,0,0,0,2.73-1.52v-2.79ZM545.1,470.23h7.32l9.51,16.49V470.23h7.41v29.86h-7.41l-9.46-16.4v16.4H545.1Zm-25.67,0h21v6.38H527.3v4.76h12.15v6.08H527.3v5.89h13.5v6.75H519.43Z" transform="translate(-217.59 -333.28)"/><rect class="d" x="27.56" y="33.55" width="259.14" height="133.26"/><polygon class="e" points="146.95 33.55 167.43 33.55 167.43 89.94 286.7 89.94 286.7 110.42 167.43 110.42 167.43 166.82 146.95 166.82 146.95 110.42 27.67 110.42 27.67 89.94 146.95 89.94 146.95 33.55"/></svg>