<svg xmlns="http://www.w3.org/2000/svg" viewBox="0 0 616.09 202.39"><defs><style>.a{fill:#231f20;}</style></defs><title>ogio-poland</title><path class="a" d="M680.1,434.89h86.7V387.8H680.1ZM805.82,423.6h0c-.62,12.26-3.6,26.82-17.48,32.1-9.16,3.47-27.08,5.22-62.12,5.22H720.7c-35,0-53-1.75-62.13-5.22-13.89-5.28-16.86-19.84-17.48-32.1-.1-2.25-.42-7.31-.42-12.37s.32-10.11.42-12.37c.62-12.28,3.59-26.83,17.48-32.09,9.15-3.48,27.1-5.22,62.13-5.22h5.52c35,0,53,1.74,62.12,5.22,13.88,5.26,16.86,19.81,17.48,32.09.11,2.26.43,7.32.43,12.37S805.93,421.35,805.82,423.6ZM623.39,460.92H585.3V361.55h38.09ZM567.66,387.8h-118v47.09h79.92V420.27H492.68V404.16h75v56.76H490.23c-35.05,0-53-1.75-62.13-5.22-13.89-5.28-16.87-19.84-17.48-32.1-.11-2.25-.45-7.31-.45-12.37s.34-10.11.45-12.37c.61-12.28,3.59-26.83,17.48-32.09,9.16-3.48,27.08-5.22,62.13-5.22h77.43ZM394.18,411.23h0c0,5.06-.34,10.12-.42,12.37-.63,12.26-3.61,26.82-17.5,32.1-9.14,3.47-27.08,5.22-62.12,5.22h-5.52c-35,0-53-1.75-62.1-5.22a23.52,23.52,0,0,1-4.32-2.15c-9.66-6.55-12-18.9-12.53-29.52V399.28c.61-12.28,3.59-26.82,17.48-32.1,9.15-3.48,27.11-5.23,62.13-5.23h5.52c35,0,53,1.75,62.11,5.23a23.69,23.69,0,0,1,6.3,3.54c8.15,6.78,10.21,18.22,10.69,28.18.07,1.53.26,4.41.35,7.68C394.23,408,394.18,409.61,394.18,411.23Zm428.24-12h0l-.06-1.19c-1.19-24.39-10.67-40.13-28.14-46.76-11.77-4.49-31.45-6.29-68-6.29H720.7c-36.53,0-56.24,1.8-68,6.28a40.6,40.6,0,0,0-12.94,7.88A16.52,16.52,0,0,0,623.39,345H585.3a16.41,16.41,0,0,0-8.83,2.56,16.37,16.37,0,0,0-8.81-2.56H514c-5.54-.13-11.55-.19-18.12-.19h-5.51c-36.55,0-56.25,1.83-68,6.33a38.87,38.87,0,0,0-20,16.5,32,32,0,0,0-13.48-13.16,44.15,44.15,0,0,0-6.59-3.19c-10.56-4-27.5-5.87-57.26-6.23h0c-3.47,0-7.07-.06-10.89-.06h-5.52c-36.52,0-56.23,1.8-68,6.28-17.47,6.64-26.93,22.38-28.14,46.77l0,1.22-.4,12,.4,12,0,1.21c1,21.08,8.27,35.67,21.45,43.52a40.76,40.76,0,0,0,7.36,3.67c11.76,4.47,31.47,6.29,68,6.29h5.52c36.52,0,56.23-1.82,68-6.29a30,30,0,0,0,9.38-5.69,38.9,38.9,0,0,0,10.12-11.07c.39.62.81,1.23,1.22,1.83a38.94,38.94,0,0,0,18.86,14.9c11.75,4.49,31.45,6.32,68,6.32h5.51c9.84,0,18.47-.14,26-.43h45.74a16.36,16.36,0,0,0,8.81-2.55,16.41,16.41,0,0,0,8.83,2.55h38.09a16.52,16.52,0,0,0,16.36-14.16,39.72,39.72,0,0,0,12.94,7.88c11.77,4.47,31.48,6.28,68,6.28h5.52c36.53,0,56.23-1.81,68-6.28,17.47-6.63,26.95-22.37,28.14-46.77,0,0,.06-1.17.06-1.17l.38-12ZM268,434.89h86.69V387.8H268Z" transform="translate(-212.03 -340.53)"/><path class="a" d="M818,348.83h1.1c1.27,0,2.34-.46,2.34-1.64,0-.84-.61-1.69-2.34-1.69a7.11,7.11,0,0,0-1.1.08Zm0,5.33h-1.55v-9.62a18.13,18.13,0,0,1,2.74-.23,5.18,5.18,0,0,1,3,.72,2.35,2.35,0,0,1,.88,2,2.41,2.41,0,0,1-1.88,2.34v.08c.84.17,1.41.91,1.6,2.34a7.43,7.43,0,0,0,.62,2.37h-1.6a6.48,6.48,0,0,1-.67-2.45,1.78,1.78,0,0,0-2.06-1.68H818Zm1.6-12.3h0a7.31,7.31,0,0,0,0,14.6,7.31,7.31,0,0,0,0-14.6Zm0-1.33a8.64,8.64,0,1,1-8.58,8.62,8.49,8.49,0,0,1,8.58-8.62Z" transform="translate(-212.03 -340.53)"/><path class="a" d="M659.05,517.45c3.85,0,6.64.68,8.39,2s2.62,3.49,2.62,6.43v8.64q0,4.2-2.1,6.13t-6.66,1.94H637V517.45Zm-2.35,6.2h-12v12.83h13a5.37,5.37,0,0,0,3.58-1,4,4,0,0,0,1.13-3.13v-4.42a3.79,3.79,0,0,0-1.38-3.25A7.11,7.11,0,0,0,656.7,523.65Zm-41.61,19H603.84l-15.08-18.3v18.3h-7.68V517.45h11.37l15,18.45V517.45h7.64Zm-82.11,0H524.6l13.74-25.16h9.8l13.48,25.16h-8.43l-2.43-4.19H535.43Zm5.36-10.24H548l-4.88-8.9Zm-47.88,4.15H507.2v6.09H482.78V517.45h7.68Zm-49.1.1h4.88q4.08,0,5.41-1c.89-.68,1.34-1.94,1.34-3.79v-3.56c0-1.85-.45-3.11-1.34-3.79s-2.69-1-5.41-1h-4.91c-2.77,0-4.59.35-5.45,1s-1.3,2-1.3,3.92v3.49c0,1.81.46,3,1.36,3.73S438.65,536.62,441.36,536.62Zm-2.08,6.3a37.75,37.75,0,0,1-6.45-.4,8.12,8.12,0,0,1-3.33-1.36,6.15,6.15,0,0,1-2.1-2.83,14,14,0,0,1-.64-4.64v-6.86a15.9,15.9,0,0,1,.64-5,6.08,6.08,0,0,1,2.1-2.93,8.21,8.21,0,0,1,3.37-1.35,36.61,36.61,0,0,1,6.38-.41h9a37,37,0,0,1,6.41.41,8,8,0,0,1,3.37,1.35,6.09,6.09,0,0,1,2.05,2.91,14.51,14.51,0,0,1,.65,4.72v7a14.41,14.41,0,0,1-.65,4.73,6.21,6.21,0,0,1-2.05,2.9,8,8,0,0,1-3.35,1.36,37.89,37.89,0,0,1-6.43.4Zm-43.21-25.47a27.49,27.49,0,0,1,4.1.25,8.25,8.25,0,0,1,2.58.8,6,6,0,0,1,2.78,3,13.93,13.93,0,0,1,.86,5.43c0,3.45-.58,5.88-1.73,7.31s-3.09,2.13-5.82,2.13H384.49v6.27h-7.72V517.45Zm-.27,6.27H384.49v6.36H395.8a2.65,2.65,0,0,0,2.15-.75,4.32,4.32,0,0,0,.62-2.67,3.19,3.19,0,0,0-.66-2.24A2.77,2.77,0,0,0,395.8,523.72Z" transform="translate(-212.03 -340.53)"/></svg>