<svg xmlns="http://www.w3.org/2000/svg" viewBox="0 0 497.14 168.42"><defs><style>.a{fill:#00adee;}</style></defs><title>szczepan-bike</title><path class="a" d="M707.13,435.16V385.55q0-13,7.81-20.84t20.78-7.83q13,0,19.79,7.6c4.57,5.06,6.86,12.36,6.86,21.85v48.83H739.68V386.33q0-6.87-5-6.87-4.84,0-4.85,6.87v48.83Zm-38.61-38.4v20.17H662v18.23H639.3V386.54q0-14.07,7.69-21.87t21.67-7.79q13.46,0,19.9,7.07T695,385.76v49.4H672.3V387.27c0-2.94-.36-5-1.07-6.11s-2-1.7-3.85-1.7c-3.6,0-5.39,2.59-5.39,7.81v9.49Zm-67.16,12V388.68q6.87,0,6.88-5.23c0-3.19-1.76-4.8-5.29-4.8s-5.37,2.2-5.37,6.57v49.94H574.89V387.57a40.87,40.87,0,0,1,1.49-12.11,24.1,24.1,0,0,1,5.06-8.8,28.31,28.31,0,0,1,10.08-7.15A31.07,31.07,0,0,1,604,356.88a26.72,26.72,0,0,1,19.57,7.83,26.12,26.12,0,0,1,7.93,19.41q0,11.25-7.1,18.24-6.48,6.45-19.56,6.44Zm-39.43-20.23v17H547.17a7.59,7.59,0,0,0-4.26.9,3.52,3.52,0,0,0-1.26,3.06c0,1.62.42,2.67,1.28,3.19s2.59.76,5.23.76h15.26v21.78H545.6q-12.6,0-19.29-6t-6.67-17.37v-30q0-11,6.31-17.07c4.22-4,10.12-6.06,17.76-6.06h19.71v22H548.94c-3.87,0-5.8,1.28-5.8,3.82a3.36,3.36,0,0,0,1.37,3.09c.94.59,2.58.88,4.93.88Zm-48.32-29.8-23.75,54.44h23.46v22H455.63l23.65-54.44h-25v-22Zm-86.19,39.1,23.8.61q-2.36,18.51-12.8,28.6T411.18,437.1q-17.07,0-28.59-11.44t-11.5-28.42q0-17.08,11.73-28.71t28.92-11.65q16.9,0,28.21,11.4,7.85,7.88,11.1,22l-24.36,1.64q-4.1-12.43-15.55-12.43a15.9,15.9,0,0,0-12.05,5,18,18,0,0,0-4.74,12.8A17.13,17.13,0,0,0,399,409.64a15.56,15.56,0,0,0,11.78,4.89q7.24,0,11.54-4.32T427.42,397.81Zm-59.27-39.1L344.4,413.15h23.46v22H310.17l23.65-54.44h-25v-22ZM305,358.37v21.81a14.92,14.92,0,0,0-3.8-.72,5.94,5.94,0,0,0-4.44,1.91,6.27,6.27,0,0,0-1.85,4.58,12.46,12.46,0,0,0,2,5.81l1.74,3c3.16,5.44,4.72,10.69,4.72,15.77a25.24,25.24,0,0,1-7.93,18.84,26.73,26.73,0,0,1-19.36,7.71,25.14,25.14,0,0,1-10.87-2.55V412.42a11,11,0,0,0,5.76,2.11,7.47,7.47,0,0,0,5-1.7,5.48,5.48,0,0,0,2-4.3c0-1.11-1.05-3.56-3.17-7.32a36.12,36.12,0,0,1-5.08-17.91,25.57,25.57,0,0,1,7.69-18.61,24.83,24.83,0,0,1,18.38-7.81A29.19,29.19,0,0,1,305,358.37Z" transform="translate(-265.23 -356.88)"/><path class="a" d="M604.7,503.81H578.14a14,14,0,0,1-.56-3.68,13.53,13.53,0,0,1,.8-4.57h8.9q-.93-5.28-5.85-5.28a6.34,6.34,0,0,0-5.34,2.8,11.75,11.75,0,0,0-2.06,7.16,12.5,12.5,0,0,0,2,7.37,6.15,6.15,0,0,0,5.23,2.82,6.93,6.93,0,0,0,5-2.64l10,12a24.46,24.46,0,0,1-15.53,5.5,23.92,23.92,0,0,1-17.47-7,24.69,24.69,0,0,1,.06-34.67,24.08,24.08,0,0,1,17.57-7.08,23.64,23.64,0,0,1,24,24c0,.69-.08,1.77-.22,3.28m-53.25-26.19-8.57,17,12.73,29.71H536.23l-11-30.51,8-16.21Zm-26.83-17.27v64H507.07v-64Zm-36.5-3.55a8.57,8.57,0,0,1,6.17,2.51,8.26,8.26,0,0,1,.14,11.92,9.63,9.63,0,0,1-12.63,0,8.27,8.27,0,0,1,.15-11.92A8.57,8.57,0,0,1,488.12,456.8Zm8.68,20.82v46.72H479.24V477.62Zm-56.57-17.27v38.31q0,9.38,6.7,9.37a6.69,6.69,0,0,0,4.84-1.95,6.36,6.36,0,0,0,2-4.72,6.67,6.67,0,0,0-1.87-4.81,6.1,6.1,0,0,0-4.58-1.95,8.21,8.21,0,0,0-4.39,1.66V477c2.06-.21,3.63-.3,4.68-.3a23,23,0,0,1,16.95,7.13,24.43,24.43,0,0,1-.13,34.47A25,25,0,0,1,436.54,523a23.12,23.12,0,0,1-8.24-6.19q-5.64-6.75-5.63-17.49v-39Z" transform="translate(-265.23 -356.88)"/></svg>