<svg xmlns="http://www.w3.org/2000/svg" viewBox="0 0 801.73 292.96"><defs><style>.a{fill:#d0d2d3;}.a,.b,.d,.e{fill-rule:evenodd;}.b{fill:#231f20;}.c{fill:none;stroke:#231f20;stroke-miterlimit:22.93;stroke-width:0.22px;}.d{fill:#ec1c24;}.e{fill:#ffd302;}</style></defs><title>teng-tools</title><path class="a" d="M902.11,594c-10.36,26.59-14.86,39.23-54.45,40.08-215.54,10-460.83,0-684,0a23.58,23.58,0,0,1-23.07-29l6.28-27.37c-10.06,0-17.33-.47-24.07-9.42-15.15-20.09,3.16-97.74,38.58-108.26-23-49.44,62.63-124.12,94.74-113.44,18.63,6.2,1.41,67.46,67.32,40.05a23.06,23.06,0,0,1,21.78-3.57c48.49,16.2,74.36,65.92,129.23,19.79a23,23,0,0,1,19.47-10.21c40.66,7.83,30.15,42.84,84.7-15.34a23.42,23.42,0,0,1,28.59,2.52c22.73,25.64,23.83,25.12,54.31,0a23.15,23.15,0,0,1,24-2.05c56,22.76,79.94,60,80.18,95.38a447.51,447.51,0,0,1,65.13,4.71c29.75,4.5,69.78,14.39,85.77,42.63C925.29,535.93,910,569.45,902.11,594Z" transform="translate(-117.43 -345.56)"/><path class="b" d="M248.63,369.06s-36.27,29.37,17.17,46.26c0,0,42,12.83,71.9-9.8,0,0-15.27,20.6,41.36,39.17,0,0,52.16,19.59,97.34,2.37,0,0,27-5.41,17.5-30.73,0,0,54.59,61.18-1.73,77.22,2.55,8.61,52.65,10.68,50.23-13,0-21.88,17.43-34.1,21.57-38.66-2.77-17.32,1.25-28.09,27.27-44.53-6,11.73-11.45,17.72.56,30.87,9.37-2.84,17.06-5.93,27.81-5.93a54.29,54.29,0,0,0-17.81,14.86c4.46,2.54,16.52,14,43.19,8.34,21.31-5.92,33.09-21,30.23-46.36,7.65,3.66,21.32,9.74,28.79,13.7,8.57,5.06,14.83,7.91,21.26,14.85,6.29,6.77,11,19.18,5.3,31.21,3.19,3.38,16.54,17.73,11.77,31.07.33,3.2.64,7.26,8.91,7.09,18.46-.68,123.91-1.56,144.68,35.11H150.33c-7.36-29.58,10.56-50.31,49.21-64.1-42.73-28.76-9.44-69.1,49.09-99Z" transform="translate(-117.43 -345.56)"/><path class="c" d="M248.63,369.06s-36.27,29.37,17.17,46.26c0,0,42,12.83,71.9-9.8,0,0-15.27,20.6,41.36,39.17,0,0,52.16,19.59,97.34,2.37,0,0,27-5.41,17.5-30.73,0,0,54.59,61.18-1.73,77.22,2.55,8.61,52.65,10.68,50.23-13,0-21.88,17.43-34.1,21.57-38.66-2.77-17.32,1.25-28.09,27.27-44.53-6,11.73-11.45,17.72.56,30.87,9.37-2.84,17.06-5.93,27.81-5.93a54.29,54.29,0,0,0-17.81,14.86c4.46,2.54,16.52,14,43.19,8.34,21.31-5.92,33.09-21,30.23-46.36,7.65,3.66,21.32,9.74,28.79,13.7,8.57,5.06,14.83,7.91,21.26,14.85,6.29,6.77,11,19.18,5.3,31.21,3.19,3.38,16.54,17.73,11.77,31.07.33,3.2.64,7.26,8.91,7.09,18.46-.68,123.91-1.56,144.68,35.11H150.33c-7.36-29.58,10.56-50.31,49.21-64.1-42.73-28.76-9.44-69.1,49.09-99Z" transform="translate(-117.43 -345.56)"/><path class="b" d="M849.76,558.12c-17,0-30.17,7.33-30.17,15.39,0,5.67,5.69,9.81,12.76,12.63,2.83,1.13,13.66,4.16,13.66,4.16,2.46.71,3.67,2.22,3.67,3.56,0,1.93-3.43,4-7.89,3.64,0,0-6.24-.24-19.31-4.85l-12.9,11c18.31,7.85,37.43,6.78,37.43,6.78,17.39,0,31.43-7.41,31.43-16.42,0-5.63-6.42-11.55-14.76-14.07,0,0-11.36-3.54-13.3-4.23-1.78-.64-2.54-1.82-2.33-2.6,1.12-4.06,11.9-2.34,22.7.86l12-9.8s-9.26-6-33-6ZM776.93,596.9l27.54,0-3.17,13.45H745.7l11.78-50.64h28.77ZM671.72,584.38c0-5.75,9.06-11.94,22.54-11.94s22.53,6.19,22.53,11.94-9.14,12-22.53,12-22.55-6.27-22.55-12Zm22.54,26.52c27.62,0,50-11.87,50-26.52s-22.38-26.53-50-26.53-50,11.88-50,26.53,22.38,26.52,50,26.52ZM565.55,584.38c0-5.75,9.06-11.94,22.54-11.94s22.54,6.19,22.54,11.94-9.15,12-22.54,12-22.55-6.27-22.55-12ZM588.1,610.9c27.6,0,50-11.87,50-26.52s-22.39-26.53-50-26.53-50,11.88-50,26.53,22.39,26.52,50,26.52ZM534.39,554l-12.89,56.3H493.31L506.24,554h-31l3.56-12.32H891.48L887.87,554ZM480.81,580.3v2.92c0,28.88-47.57,27.16-47.57,27.16-50.57,0-47.31-26-47.31-26,0-27.72,51.12-26,51.12-26s27.73-.54,41.88,13.93l-23.39,6.19s-6.41-7-20.71-7c0,0-20-.47-20,12.94,0,0-.48,13.33,19.34,13.33,0,0,12.43-.18,16.08-5.74H430.29L436,580.3ZM213.7,610.36l11.76-50.59h55.68L278,572.91H250.5l-1.15,5.15,24.52,0L271,590.66H246.46l-1.55,6.24,27.57,0-3.18,13.43Zm131.12,0h25.55l11.82-50.62H354.1l-5.67,24.3-27.55-24.3H292.43l-11.84,50.62h28.07l6.41-27.28ZM205.55,554l-12.92,56.34h-29L176.58,554h-34.9l3.53-12.33H470.66L467,554Z" transform="translate(-117.43 -345.56)"/><path class="c" d="M849.76,558.12c-17,0-30.17,7.33-30.17,15.39,0,5.67,5.69,9.81,12.76,12.63,2.83,1.13,13.66,4.16,13.66,4.16,2.46.71,3.67,2.22,3.67,3.56,0,1.93-3.43,4-7.89,3.64,0,0-6.24-.24-19.31-4.85l-12.9,11c18.31,7.85,37.43,6.78,37.43,6.78,17.39,0,31.43-7.41,31.43-16.42,0-5.63-6.42-11.55-14.76-14.07,0,0-11.36-3.54-13.3-4.23-1.78-.64-2.54-1.82-2.33-2.6,1.12-4.06,11.9-2.34,22.7.86l12-9.8s-9.26-6-33-6ZM776.93,596.9l27.54,0-3.17,13.45H745.7l11.78-50.64h28.77ZM671.72,584.38c0-5.75,9.06-11.94,22.54-11.94s22.53,6.19,22.53,11.94-9.14,12-22.53,12-22.55-6.27-22.55-12Zm22.54,26.52c27.62,0,50-11.87,50-26.52s-22.38-26.53-50-26.53-50,11.88-50,26.53,22.38,26.52,50,26.52ZM565.55,584.38c0-5.75,9.06-11.94,22.54-11.94s22.54,6.19,22.54,11.94-9.15,12-22.54,12-22.55-6.27-22.55-12ZM588.1,610.9c27.6,0,50-11.87,50-26.52s-22.39-26.53-50-26.53-50,11.88-50,26.53,22.39,26.52,50,26.52ZM534.39,554l-12.89,56.3H493.31L506.24,554h-31l3.56-12.32H891.48L887.87,554ZM480.81,580.3v2.92c0,28.88-47.57,27.16-47.57,27.16-50.57,0-47.31-26-47.31-26,0-27.72,51.12-26,51.12-26s27.73-.54,41.88,13.93l-23.39,6.19s-6.41-7-20.71-7c0,0-20-.47-20,12.94,0,0-.48,13.33,19.34,13.33,0,0,12.43-.18,16.08-5.74H430.29L436,580.3ZM213.7,610.36l11.76-50.59h55.68L278,572.91H250.5l-1.15,5.15,24.52,0L271,590.66H246.46l-1.55,6.24,27.57,0-3.18,13.43Zm131.12,0h25.55l11.82-50.62H354.1l-5.67,24.3-27.55-24.3H292.43l-11.84,50.62h28.07l6.41-27.28ZM205.55,554l-12.92,56.34h-29L176.58,554h-34.9l3.53-12.33H470.66L467,554Z" transform="translate(-117.43 -345.56)"/><path class="d" d="M708.19,461.32S759.07,476,704.7,496.1c6.94-5.74,25.45-15,3.47-34.78Zm26.1,40.86C692,504.54,614,509.61,566,518.22c-19.07,2-38.49,3.54-45.49-12.66-12.09,1-32.44,1.52-42.62-9.12-5.41.84-16.23.84-22.91-.68-10.5,21.78-85.57,35-161,15.71-67.44-20.09-70.62-52.68,30.53-59.26-27.35-5.07-85.44,3.16-98.73,25.8a41.69,41.69,0,0,1-10-2.07,51.58,51.58,0,0,1-8.82-3.65c-28.84,12.35-49.8,27.33-38.29,58.93H803.15c-3.11-3.23.65-7.7,8.59-10.09,8.1-2.43,17.48-1.77,20.93,1.47,2.78,2.61.91,6.09-4.13,8.62h47.62c-11.76-15.7-38.49-32.42-141.87-29Z" transform="translate(-117.43 -345.56)"/><path class="c" d="M708.19,461.32S759.07,476,704.7,496.1c6.94-5.74,25.45-15,3.47-34.78Zm26.1,40.86C692,504.54,614,509.61,566,518.22c-19.07,2-38.49,3.54-45.49-12.66-12.09,1-32.44,1.52-42.62-9.12-5.41.84-16.23.84-22.91-.68-10.5,21.78-85.57,35-161,15.71-67.44-20.09-70.62-52.68,30.53-59.26-27.35-5.07-85.44,3.16-98.73,25.8a41.69,41.69,0,0,1-10-2.07,51.58,51.58,0,0,1-8.82-3.65c-28.84,12.35-49.8,27.33-38.29,58.93H803.15c-3.11-3.23.65-7.7,8.59-10.09,8.1-2.43,17.48-1.77,20.93,1.47,2.78,2.61.91,6.09-4.13,8.62h47.62c-11.76-15.7-38.49-32.42-141.87-29Z" transform="translate(-117.43 -345.56)"/><path class="e" d="M346,461.26c-20.36-.34-44.54-1-72.22,6.42-11.13,4.22-13.67,2-9.54,13.33,4.78,9.8,15,21.61,55,28.87,24.19,3.89,92.26,13,119.29-15C438.6,494.86,373.06,465.65,346,461.26Zm27.83,49c-13.78,0-25-5.93-25-13.25s11.19-13.25,25-13.25,25,5.93,25,13.25-11.18,13.25-25,13.25Z" transform="translate(-117.43 -345.56)"/><path class="c" d="M346,461.26c-20.36-.34-44.54-1-72.22,6.42-11.13,4.22-13.67,2-9.54,13.33,4.78,9.8,15,21.61,55,28.87,24.19,3.89,92.26,13,119.29-15C438.6,494.86,373.06,465.65,346,461.26Zm27.83,49c-13.78,0-25-5.93-25-13.25s11.19-13.25,25-13.25,25,5.93,25,13.25-11.18,13.25-25,13.25Z" transform="translate(-117.43 -345.56)"/><path class="e" d="M648.89,505.15c-3.76-2.11-6.07-5-6.07-8.1,0-6.52,10-11.82,22.27-11.82s22.27,5.3,22.27,11.82a6.26,6.26,0,0,1-.52,2.55c5.62-1.53,24.38-15.72,7.52-33.44-5.4.5-36.27,9.62-75.07,31.06-5.41,3.38-11.14,7.26-28.64,9.46-5.07.5-7,5.74,4.77,4.55s53.46-6.08,53.46-6.08Z" transform="translate(-117.43 -345.56)"/><path class="c" d="M648.89,505.15c-3.76-2.11-6.07-5-6.07-8.1,0-6.52,10-11.82,22.27-11.82s22.27,5.3,22.27,11.82a6.26,6.26,0,0,1-.52,2.55c5.62-1.53,24.38-15.72,7.52-33.44-5.4.5-36.27,9.62-75.07,31.06-5.41,3.38-11.14,7.26-28.64,9.46-5.07.5-7,5.74,4.77,4.55s53.46-6.08,53.46-6.08Z" transform="translate(-117.43 -345.56)"/></svg>