<svg xmlns="http://www.w3.org/2000/svg" viewBox="0 0 761.89 298.56"><defs><style>.a{fill:#bf202e;}.b{fill:#4f5252;}.c{fill:#fff;}</style></defs><title>vetlanda-svets-metall</title><path class="a" d="M753.78,370.54c2.55-.41,4.06,1.3,5.19,3.36s1.82,4.62,3.21,5.66l.41-2.91,1.82,3.76,2.08-3.25a14.84,14.84,0,0,0,3.52,3.09c1.29.9,2.71,1.59,3.82,2.52,2.27,1.78,3.87,3.68,2.76,6.71l3.35-5.22.32,1.21c.16.75.37,1.75.59,2.75.39,2,.79,3.93.79,3.93v-2.76c0-1.4,0-2.8,0-2.8a20.18,20.18,0,0,1,4.49,3.89,45.13,45.13,0,0,1,3.55,5.15,49.43,49.43,0,0,1,2.45,4.64,13.28,13.28,0,0,0,1.34,2.44l1.24-2c1.68.07,1.24,1.77,1.46,3.22l1.94-3a20.78,20.78,0,0,0,5.14,5c1.7,1.27,3.44,2.23,5.17,3.29a18.86,18.86,0,0,1,8.71,11.21c1.31,1.23,1.28.68,1.12-.33s-.49-2.46.3-3c3.42.07,3.65,5.44,2.85,7.05,4-3.67-.34-7.62,5.59-6.29-.62,4,3.1-4.45,5.11.78l-2.4,2.69-2.44,2.68c2.53,2,5-2.21,6.79,2.28,0,3.15-2.55,2.59-4.63,2.35-1-.11-2-.16-2.47.31s-.45,1.44.31,3.43c.6.88,2,1.33,3.91,1.69s4.06.66,6.26,1.15a15.33,15.33,0,0,1,5.92,2.41,7.06,7.06,0,0,1,1.94,2.17,6.47,6.47,0,0,1,.72,3.07c3.15,2.74,5.22.85,6.85-.54s2.77-2.17,4,3.21c0,0,.11-.51.26-1.27s.35-1.79.54-2.81.39-2.07.51-2.85.21-1.29.21-1.29c2.51.92,5.29-1.51,5.78,3.61a22.54,22.54,0,0,0-2.68,4.45,8.07,8.07,0,0,0-.85,4.5c.38-2.86,1.15-3.95,2.26-4.13s2.5.56,3.91,1.35c2.85,1.55,6,3.37,7.47-2.68,0,0,.26.94.53,1.88l.5,1.9a1.09,1.09,0,0,1,1.27-.79l.33.77c.2.45.47,1.06.72,1.7s.51,1.21.73,1.83.34.93.34.93c0-.51,0-1.15,0-1.76s0-1.16,0-1.78a22.37,22.37,0,0,1,.13-3.52c.31-2.11,1.29-3.6,4.31-2.7l.6,1.1,1.29,2.5.69,1.41c.22.47.4.81.61,1.32l.62,1.45a4.94,4.94,0,0,0,.57-.55,4.47,4.47,0,0,1,.53-.47,3.71,3.71,0,0,1,1.05-.59,4.16,4.16,0,0,1,2.07-.11l1,.18c.33,0,.66,0,1,0a5.87,5.87,0,0,0,2.06-.42l0-.24a6.76,6.76,0,0,0,0-1c0-.24,0-.51-.06-.8s0-.63,0-.86c0-.53,0-1.13-.05-1.78,0-1.25-.1-2.7-.16-4.27s-.16-3.12-.24-4.73-.22-3.19-.33-4.69-.25-2.86-.36-4-.21-2.17-.29-2.86-.12-1.08-.12-1.08c-1.72,1.78-1.78,5.55-4.43,5.25-2.16-2.53-1.73-4.09-1.4-5.6s.49-2.92-2.2-4.94l-1.66,3.65c.85-.9.84-1.81,1.75-.82,2.67,1.06.89,2.88-.85,3.65-2.17-.17-3.3-1.8-3.66-3.77a9,9,0,0,1,.81-5.63c-3.82-6.56-6.92,1.75-8.72.8,2.08-3.19.52-5.92-1.4-8.5s-4.43-4.91-4.27-7.68l-2.15,4.67c-3.57-1.13-5.14-3.18-5.87-5.47a16.29,16.29,0,0,1-.61-3.48c-.11-1.13-.18-2.19-.33-3.08l-2.18,2.95c-1.9-3.35-5.69-4.22-8.3-5.53s-3.77-3.3-.71-9.35l-1.32,2a35.1,35.1,0,0,1-4.8-3.2,5.55,5.55,0,0,1-2.05-5.28c-1.16.88-2.87,1.64-4,1,2.46-4.36-2.32-4.56-6.12-7.23,1.17,3.06-3.94,6.48-3,9.77-4.59-.4-4.4-2.59-3.57-5.36a32.76,32.76,0,0,0,1.18-4.28,4,4,0,0,0-1-3.76c-4.73-.19-.14,4.59-1.31,6.84-.88-2.21-2.87-3.41-5.13-4.23a46.56,46.56,0,0,0-7.13-1.64c-2.34-.43-4.38-1-5.6-2.19a4.28,4.28,0,0,1-1.17-2.48,9.85,9.85,0,0,1,.36-3.93l2.72-.36,2.69-.26a9.76,9.76,0,0,0-1.74-4.23c-.58-.68-1.06-.69-1.25-.1,1.16.4.74,1.53.34,2.67a9.5,9.5,0,0,1-6.54-3.44,12,12,0,0,1-1-1.42,17.12,17.12,0,0,1-.89-1.51c-.55-1-1-2.18-1.51-3.35a39.74,39.74,0,0,0-3.28-6.91,12,12,0,0,0-6-4.72c-.47,2.41.48,3.88-.48,5.56-2.75-.28-2.25-3.47-2.33-6.65s-.82-6.2-5.65-6.08l.19,3.13c-3.17.12-3.21-4.27-2.55-4.79-2.42,4.53-6.31,2.65-11,.78a24.43,24.43,0,0,0-3.65-1.22,15.31,15.31,0,0,0-3.88-.38,10.51,10.51,0,0,0-7.68,3.78,13.91,13.91,0,0,0-2.5-5,23.88,23.88,0,0,0-4.29-4.41,15.17,15.17,0,0,0-4.82-2.75,5.38,5.38,0,0,0-4,0c-3.19,2.42-2.52,4.37-1.54,6.34s2.29,4,.67,6.56c-1.79-.42-2.78-2.14-4.09-3.7a8.19,8.19,0,0,0-2.33-2,5.31,5.31,0,0,0-3.54-.55,8.2,8.2,0,0,1,2.42-3.93c1.16-1.18,2.52-2.27,3.56-3.37,2.07-2.17,2.85-4.44-2.27-7.34l-2.19,2.76c.61-.09,1.36-.36,2.14-.47a3,3,0,0,1,2.28.57c2.32,4.14-2.73,3.3-3.75,4.73l-11.15-3.89c.11-6.27,6.93-3.52,8-4.92a33.74,33.74,0,0,0-7.66.71c-2.65.56-5.35,1.41-8,2a34.08,34.08,0,0,1-7.55,1.12,12.08,12.08,0,0,1-6.73-1.39l.65,2.36c-5.25-3-7-.27-8.36,1.91s-2.35,3.89-6.53-1.1c-4.49,1.59,1.53,6.57-5.11,7-1.87,0-.81-2.31-.48-3.08a9.37,9.37,0,0,0-2.6-.4,3.82,3.82,0,0,0-1.58.34,4.17,4.17,0,0,0-1.6,1.54c-.78,1.06-1.49,1.68-5.29-1.05l1.8,6.48a49,49,0,0,1-6.82-4.13c-2.29-1.57-4.62-3.2-6.92-4.62a28.43,28.43,0,0,0-6.76-3.24,8.86,8.86,0,0,0-6.15.21c.83,5,5.58,4.12,7.71,7.89a17.36,17.36,0,0,0-8.75-3.5,34.26,34.26,0,0,0-9.26.27c-3.09.43-6.13,1-9,1.19a19.35,19.35,0,0,1-8.28-.69c1.18-2.31-.29-4.64-1.36-6.93s-1.72-4.54,1.27-6.71c2.48,6.28,4.93,1.62,8.44,2-3.53-6.76-9.27-4.32-14.33-1.64s-9.51,5.65-11.42-.23l-.62,5.25c-1.65-.47-6.3-3.49-3.86-5.55l-1.66.82c-1,.5-2.32,1.12-3.65,1.84L576,306a85.06,85.06,0,0,0,9.22,5.25c3.2,1.44,6,1.78,6.76-1.13,4,4.71-3.81,4.29,0,9.85-4.31-3.48-5.29-2.4-6.08-.52s-1.42,4.64-5.24,4.53c.87-3.93-1.45-6-4.15-7.43s-5.68-2.25-5.93-4c-1.08,1-3.19,1-5.4.5a18.52,18.52,0,0,1-5.94-2.17,12.13,12.13,0,0,0-4.12,1.67c-1.56.93-3.27,2.09-5.07,3.22a53,53,0,0,1-5.58,3.14,16,16,0,0,1-5.78,1.49c3.39,1.12,8.5,2.62,9.69,7.09-2.08-.67-4-.68-5.3.16s-1.82,2.54-1.16,5.19c3.7,1.2,5.49,1.09,6.33.16s.73-2.65.55-4.46c-.37-3.6-.95-7.71,5.44-6.33a15.86,15.86,0,0,0,6.3,4.69,22.4,22.4,0,0,0,7.36,1.17c-1.52,4.1,0,5.28.12,9.66-2.47-2.67-4.83-3.83-7.08-4a14,14,0,0,0-6.56,1.51,67.67,67.67,0,0,1-6.47,3,11.66,11.66,0,0,1-7.23.5c-2.45-1.11-3.77-3.76-5.57-5.94S531,329,526.66,330l.84-1.05,1.92-2.26,2.82-3.31c-6.49,6.59-3.34-2.84-10.42-1.35l4.22,2.75c-3.59,2.47-5.31,2.43-8.75.59l6,4.49c-1.79,1.65-5.21,4.15-6.87.69a11,11,0,0,0,1,3.91c-.86-.78-2.15-1-4.42.35,1.7,0,2.53-.82,3.39.91-9.66,2.89,1,7.36-4.85,9.44,1.52.94.8,3.38-.77,5.06-4.41-9.29-15.81-5.12-21.08-8.84l.11.11h-1.41l-3.07-.06-4.45-.11c1.8,0,1.48,3.33-.11,5.31l.32-.21c-1.56,2.51,7.57,8.73-.52,9.33l-2.44-.51-2.43-.55c.78,0,.85,1.75.85,2.61l-4.84-.82c-.83,5.61-4.1,5.59-7.65,5s-7.4-1.78-9.87,1.67c1.62-1.49,4.8-2,4.73,1.39-.86,1.61-3.27,1.31-4.83.31l.77.93-2.36-.14c-1.4-.07-3.28-.21-5.16-.38l-5.12-.46c-1.39-.12-2.33-.24-2.33-.24,2.16,2.95,9.44.54,7.57,5.39-.17,2.55-1.62,3-3.32,2.88s-3.67-.91-4.9-.69c-.53-2.67,2.93-6.36-1.82-6.31-.1,1.44-3.35,5.48-.82,6.68-5.33-1.17-12.32-.8-17.62-4.38-1,1.49,1.32,2,2.1,2.21l.12-.85c3.08.69,2.34,6.64,6.87,2.32,1.5,4.18-.24,5.41-2.94,5.8s-6.29,0-8.5,1.29l4.58,1.87,4.64,1.85c-4.82,7.69-12.78,9.51-20.94,9.48-2,0-4.1-.11-6.13-.23l-6-.52a43.92,43.92,0,0,0-11.11.16c3.39-3.49,7.14-1.53,5.36-8.25-8.9-1.69-7.56-.34-16-.21l.75.25c-3.5,4.18-10.36-1.64-12,4.95,2.48,3.47,5.3-4.52,6.75,3.09l-10.32,1.09c4,4,10.34-1.09,14.43-.67,2.74-.88-5.85-.11-5.4-5.3,4.75-.67,7.88.17,10.69,1.82s5.1,4.35,8.18,7.45c3.95,4.7-3.18,6.19-5,6.58A27.11,27.11,0,0,0,366.33,396a20,20,0,0,0-13.57,2.55l-2.21,3.29c-1.13,1.63-2.25,3.27-2.25,3.27-5.53-4.61-5-15.27-13.31-12.78l3.1,3.81c-1.64,1.9-2.81,2.62-3.74,2.71,4.11,2.65,8.6,5.65,12.45,8.46-1.84,4.77-5.59,4.18-9.76,2.28-2.09-1-4.27-2.2-6.41-3.33a19.21,19.21,0,0,0-6.07-2.32c.5,1.08,3.07,1.15,4.12,3.35-5.31,1.66-11.13.17-16.61-1.8s-10.69-4.62-14.91-4.93c-3.19,4.2,7.17,1.95,6,7.91-4.6-1.85-9.15,3.67-10.79-1.58,2.57,7.57-10.12,1.3-1.09,7.89A45.73,45.73,0,0,1,279,416.36c-2.09,0-4.2-.08-6.31-.27s-4.26-.53-6.39-.9c-4.27-.75-8.54-1.72-12.76-2.78s-8.37-2.25-12.41-3.22a7.87,7.87,0,0,1,.24,5.79c5.48-.27,13.59,1.77,16.86,6.91-3.46,4.14-8.75-5-9.7-2.59,1.91,1.84,5.56,1.69,5.79,5.54-4.59,4.47-7.47-1.59-10.81-2.23l1.75-2c-10.48-4.94-6-13.28-16.8-11-3.92,4.74,0,3.85.18,9.65-1.3-1.13-4-.05-6.78.45s-5.51.54-6.83-2.54l6.63-.46c-4.63-1.66-9-1.65-12.19-3.7.32,1.25.56,2.55,1.53,3-3.64-1.92-8.38-1.56-10.15-5.46l-1.2,6.21c2.28-2.71,8.82-3.06,9.89.42-.71,5.42-7.34,1.9-10.26,2.27,12.81,2,12.95,11.61,24,7.63l-1.88-1.92c3.43-2.31,6.88-1.64,10.26-.33s6.67,3.17,9.67,3c-1.65,1.31-2,3.58-1.15,4.6a43.49,43.49,0,0,1,9.93-2.56c1.66-.24,3.33-.41,5-.53s3.36-.26,5.07-.36c3.41-.19,6.88-.32,10.43-.64a63.85,63.85,0,0,0,10.91-1.89l5,5.78,0-4.66c7.24-2.56,2.09,6.45,6.86,5.63-1.84.17-1.56-.65-2-1.77,9.06,4.54,4.44-4.73,9.37-3.67-2.73-4.77-9.4-1-7.79-7.73,8.93,4.49,21.91.43,24.33,11.33,7.75-3.16,16.73-3.42,25.5-3.4,4.39.06,8.73.3,12.83.46a98.6,98.6,0,0,0,11.48-.26c1.54-2.23-1.41-1.32-1-3,3.23,2.76,7.58.89,11.19-.95l2.55-1.3a12.43,12.43,0,0,1,2-.9c1.2-.35,2.05-.11,2.34,1.31,2.17-2,2.4-6.43,2.77-8.08a24.62,24.62,0,0,0,12.34,2.62l-3.37-1,.18-.84,4.78,1.38-.12.39,1,0,.5,0h.17l.32-.06h.08l.27,0,2.12-.24c1.43-.18,2.86-.4,4.31-.62l8.74-1.33a60.32,60.32,0,0,1,8.79-.62,32,32,0,0,1,8.75,1.11c-6.72-2.07-.5-7.11-3.8-8.58,3.72,3.79,8.63,4.72,13.79,4.29A48,48,0,0,0,461,407c-.69-1.81-.5-3.52-2.13-4.57l3.41.79c1.71.4,3.43.74,3.43.74L464.13,402a20.28,20.28,0,0,1,7.64-2.39c2.71-.39,5.51-.51,8.21-.65,5.34-.34,10.22-.88,12.41-4.32-4.3.8-5.14-1-6.79-3.6,6.84-2.86,13.16-5.74,21.93-7a3.07,3.07,0,0,1-1.53-1.37c1.62-1.71,4.95-.84,7.46-.84l-1.79-4.27c2.37,0,4.47-1.11,6.77-2.1a12.47,12.47,0,0,1,7.7-1.21c-.28-2.69,2.89-2.93,6.55-2.94a43.81,43.81,0,0,0,5.52-.16,6.73,6.73,0,0,0,4.26-1.64c2.34.2-6.21-3.08-.82-5.15,2.36,4.43,4.07,3.8,5.77,3.27s3.41-1,5.59,4l3.07-5.39,2.85,4.68c.15-5.42,2.05-4.88,4.36-3.57s5.1,3.48,7.43,1c-.64-1-1.36-1.19-1.3-2,2.16.44,6.61,0,4.09,3.54,1.52-.43,5-.82,7.34-1.51s3.64-1.81.58-4c.55,1.46-.42,1.81-1.79,1.72a24.7,24.7,0,0,1-4.22-.81c-.5-2.26.54-3.28,1.69-4.39s2.46-2.22,2.44-4.83a16,16,0,0,0,1.75,1.71v-2.95c3.61,1.68,6.76,1.45,9.73,1.35s5.82.21,8.6,3c0-1.47.88-2.78,3.05-2.81l1,5.71,6.48-1.11-2.15-3.94-2.18-3.93a8.23,8.23,0,0,1,5.2-.25,20.57,20.57,0,0,1,5,2.35c3.26,2,6.32,4.34,9.42,4.79.27-4.89,3.36-4.28,6.87-3.57s7.53,1.68,9.91-2.81l-5-2.25a20.61,20.61,0,0,0,6.41-.33,34,34,0,0,0,4.57-1.36,17.48,17.48,0,0,1,4.48-1.06,16.17,16.17,0,0,1,6.14.76c-1.06.44-2,.78-2.84,1.1s-1.48.57-2.14.8c-1.3.47-2.42.84-3.63,1.35-2.44,1.06-5.27,2.63-10.88,7.07,5.79-2.53,10.84-1.32,15.75-.44l1.86.34,2,.3a28.6,28.6,0,0,0,4,.25,18.68,18.68,0,0,0,4.1-.5,17.12,17.12,0,0,0,2.09-.63c.35-.14.71-.28,1.06-.44l.54-.25.06,0h-.35l0,0,.11-.06.23-.13a5.37,5.37,0,0,0-.34-.83l0-.1,0-.05h.35v0l-.13-.19c-.08-.13-.17-.25-.26-.38a13.83,13.83,0,0,1-1-1.42c-.5-.95-.55-1.91.84-3.14a3.62,3.62,0,0,0,.24.43l.14.19,0,0c.29,0-.4,0-.33,0h0v0l0,0,.06.09a3.77,3.77,0,0,0,.55.63,3.81,3.81,0,0,0,1.33.74,11,11,0,0,0,3,.37c1.94.08,3.43.25,2.65,3.16,3.09-1.94,3.83-7.45,5.8-8.13l5,3.92,4.87,3.88-.21-1.16a18.74,18.74,0,0,1,6.77-2.71,17,17,0,0,1,6.4,0,27.43,27.43,0,0,1,5.88,2.13c.95.46,1.88,1,2.8,1.5s1.77,1.21,2.65,1.83l5.12,3.84,1.27.92,1.24,1c.82.64,1.65,1.25,2.49,1.8a26.14,26.14,0,0,0,2.59,1.52c.87.45,1.79.8,2.69,1.21a16,16,0,0,0,5.92,1.29l.89-3s.52,1.43,1,2.85.93,2.95.93,2.95c-1.67-4.12,2.8-3,4.19-5.32l1.08,1.66c.63,1,1.49,2.28,2.29,3.61l3,5.45c1.52-2.27,3.93-8,1-8.18" transform="translate(-138.13 -298.37)"/><path class="b" d="M532.74,460.62h-1.21l-13.44-35.27c-2-5.31-3.11-7.36-7.2-7.51v-1.29h15.77v1.29c-3.1,0-4.62,1.67-3.33,5.08L534,451,544,423.9c1.36-3.71.68-6.07-3.27-6.06v-1.29h12.67v1.37c-3.26,0-5.69,2.5-7.89,8.42Z" transform="translate(-138.13 -298.37)"/><path class="b" d="M560.21,453.86c0,4.86.6,4.86,3.64,4.86h4.47c2.13,0,4.93-.23,6.68-4.33h1.36L575,460H550.27v-1.29c3.49-.31,4.78-.68,4.78-5V437.25c0-4.17-1.28-4.62-4.77-4.93V431h24.27l.46,5.46h-1.37c-.83-4.17-3.94-4.17-6.52-4.17H560.2v12.44h5.16c4.4,0,4.63-2.35,4.78-3.94h1.29v9.63h-1.29c-.15-1.67-.23-3.95-4.78-3.95H560.2Z" transform="translate(-138.13 -298.37)"/><path class="b" d="M597.07,453.71c0,4.4,1.67,4.7,4.7,5V460H586.91v-1.29c3.11-.3,4.77-.6,4.77-5V432.92h-4.55c-5,0-5.46,3.95-5.69,5.62h-1.21l.22-9h1.29c1.14.91,1.9,1.44,4.48,1.44h16.31c2.58,0,3.34-.54,4.47-1.45h1.29l.23,9h-1.21c-.23-1.67-.68-5.62-5.69-5.62h-4.55Z" transform="translate(-138.13 -298.37)"/><path class="b" d="M624.37,455.37c0,2.43.84,3,3.57,3h5.31c3.64,0,4-.84,6.3-6.37h1.36l-2.35,8H614.44v-1.29c3.11-.3,4.78-.61,4.78-5V437.24c0-4.32-1.67-4.62-4.78-4.93V431h14.71v1.29c-3.64.31-4.78,1.07-4.78,4.93Z" transform="translate(-138.13 -298.37)"/><path class="b" d="M649.63,454.16a5.58,5.58,0,0,0-.45,2c0,2,2.2,2.43,3.11,2.58V460h-9.41v-1.29c2.81-.61,3.57-1.22,5.39-6.22l8.19-22h4.09l8.12,22.22c1.67,4.55,2.35,5.69,6,6V460H661.09v-1.28c1.67-.16,3.41-.39,3.41-2a5.73,5.73,0,0,0-.53-2l-2.2-6.15H651.68Zm11.46-7.59-4.33-12-4.47,12Z" transform="translate(-138.13 -298.37)"/><path class="b" d="M684.45,438.53c0-3,.07-5.31-5.47-6.22V431h8.88l21.32,21.61v-15.4c0-4.32-1.75-4.62-4.86-4.93V431h11.83v1.29c-3.11.31-4.78.61-4.78,4.93v23.06h-1.22L686.65,437v16.84c0,2.12.38,4.85,3.72,4.85H692V460H679.75V458.7c3.11-.3,4.7-.6,4.7-5Z" transform="translate(-138.13 -298.37)"/><path class="b" d="M726.24,437.23c0-4.32-1.67-4.63-4.78-4.93V431h15.7c4.17,0,8.12,0,12.44,3a14,14,0,0,1-.6,23.36c-4.17,2.58-9.26,2.59-11.84,2.59h-15.7V458.7c3.42-.31,4.78-.69,4.78-5Zm5.24,16.54c0,3.64.3,4.93,5.15,4.93,4,0,12.9-1.3,12.9-12.83,0-8.72-4.94-13.57-12.37-13.57h-5.69Z" transform="translate(-138.13 -298.37)"/><path class="b" d="M764.26,454.14a5.67,5.67,0,0,0-.46,2c0,2,2.21,2.43,3.11,2.58V460h-9.4v-1.29c2.81-.6,3.56-1.21,5.38-6.22l8.19-22h4.1l8.12,22.23c1.67,4.55,2.35,5.68,6,6V460H775.71v-1.29c1.67-.15,3.42-.38,3.42-2a5.79,5.79,0,0,0-.54-2.05l-2.2-6.14H766.3Zm11.45-7.58-4.32-12-4.48,12Z" transform="translate(-138.13 -298.37)"/><path class="b" d="M181.22,476.85h-2.39c-1.27-12-9.71-16.6-17.87-16.6-8.45,0-14.5,4.65-14.5,12.11,0,14.91,20.55,18.85,32.09,30.39,5.63,5.62,7,10.69,7,16a23,23,0,0,1-22.93,22.94c-8.59,0-15.76-4.22-18.44-4.22-1.4,0-2.39,1-3.09,3.09h-2.4V518.79h2.39c.15,14.92,12.39,19.84,19.43,19.84,9.7,0,16.18-5.63,16.18-14.35,0-13.93-21.68-20.41-30.68-29.41a22.71,22.71,0,0,1-6.9-16.89c0-12.38,8.86-20.82,21.95-20.82,8.58,0,12.66,3.09,15.76,3.09,1.26,0,1.55-.28,2.11-2.25h2.25Z" transform="translate(-138.13 -298.37)"/><path class="b" d="M223.73,540.45h-2.39L202.9,498.24c-2.68-5.91-4.08-9.29-10.84-9.85V486h25.75v2.39c-3.8.56-6.33,1-6.33,4.64,0,1.27,0,1.41,1.55,4.79L225.7,527.5l12.24-29.12a12.84,12.84,0,0,0,1.26-4.79c0-4.08-3.94-4.78-6.33-5.21V486h19.28v2.39c-3.38.28-6.62.85-10.55,10Z" transform="translate(-138.13 -298.37)"/><path class="b" d="M278.89,528.34c0,9,1.13,9,6.76,9H294c3.94,0,9.14-.43,12.38-8h2.53l-2.53,10.42H260.46v-2.39c6.47-.56,8.86-1.27,8.86-9.29V497.53c0-7.74-2.4-8.59-8.87-9.15V486h45l.85,10.14h-2.54c-1.55-7.74-7.32-7.74-12.1-7.74h-12.8v23.08h9.57c8.16,0,8.58-4.36,8.86-7.31h2.39V522h-2.39c-.28-3.1-.42-7.32-8.86-7.32h-9.57Z" transform="translate(-138.13 -298.37)"/><path class="b" d="M347.28,528.05c0,8.16,3.1,8.73,8.73,9.29v2.39H328.42v-2.39c5.77-.56,8.87-1.13,8.87-9.29V489.5h-8.44c-9.29,0-10.13,7.32-10.55,10.41H316l.42-16.6h2.39c2.11,1.69,3.52,2.67,8.3,2.67h30.26c4.78,0,6.19-1,8.3-2.68h2.39l.42,16.61h-2.25c-.42-3.1-1.27-10.42-10.55-10.41h-8.45Z" transform="translate(-138.13 -298.37)"/><path class="b" d="M408.63,500.89h-2.25c-1-8.59-5.35-13.93-13.23-13.93-6.19,0-9.43,4.22-9.43,7.88,0,4.64,2.4,6.05,14.22,12.94,9.85,5.77,13.23,11.68,13.23,17.73,0,7.18-6.34,15.48-17.59,15.48-2.39,0-4.5,0-10-2.67a5.36,5.36,0,0,0-2.25-.56,2.5,2.5,0,0,0-2.54,2h-2.39V522.42h2.39c1.55,8.44,5.63,16,14.5,16,5.06,0,10.27-3.52,10.27-9.43,0-6.19-4.23-8.72-14.5-14.63C383.3,511,377,506.8,377,498.92c0-7.18,5.48-14.21,15.62-14.21a16.48,16.48,0,0,1,5.34.7c4.37,1.26,4.51,1.26,5.35,1.26a4.93,4.93,0,0,0,3.1-1.26h2.25Z" transform="translate(-138.13 -298.37)"/><path class="b" d="M499.26,510.3c-3.52.57-7.18,1.41-9.57,6.05-3.09,6.06-3.37,6.62-6.05,10.56,2,2.39,8.45,10.55,11.4,10.55.85,0,2.39-.56,4.93-2.53l1.4,1.83c-4.36,4.22-8.44,4.92-11,4.92-5.21,0-7.6-2.11-13.23-7.31-3.24,2.81-8.16,7.32-17.45,7.32-10.69,0-15.34-6.47-15.34-12.24,0-3.94,2.53-10.7,13.23-14.64-2.39-2.39-6.48-6.33-6.48-12.94,0-7.32,6.9-12.53,14.5-12.53C469,489.34,479,490.89,479,500c0,3.24-1.26,7.46-9.7,12.25,3.66,3.09,6.19,5.63,12.24,12.24,2.39-2.82,5.63-8.17,5.63-11.4,0-1.83-1.27-2.39-2.82-2.81v-2.26h14.92Zm-33.77,26.32c1.13,0,4.93-.14,9.43-4.36A92.07,92.07,0,0,0,460,517.06c-3.52,2.4-5.63,5.77-5.63,8.87C454.37,531.84,460,536.62,465.49,536.62Zm1.69-26.31c2.39-1.55,5.62-3.66,5.62-9.15,0-2.67-1.4-8.72-7.74-8.72-2.39,0-7.31,1.12-7.31,5.77C457.75,500.74,458.59,503.41,467.18,510.31Z" transform="translate(-138.13 -298.37)"/><path class="b" d="M584.63,494.81,565.79,539.7h-2.54l-18.16-44.88-3.37,31.94c-.7,6.19,1,9.43,7.18,10.55v2.4H529.2v-2.39c5.63-1,8.16-2.68,9-10.7l3.52-35.32c-2.68-2-3.94-2.25-8-2.95V486h17.73l16.32,40.24L584.63,486h17.31v2.39c-2.81.42-7.88,1.12-7.88,6.05,0,.7.29,4.92.29,5.49l2.53,26.31c1,10,3.8,10.41,9.43,11.12v2.39H579.86v-2.39c5.06-1,7.74-1.41,7.74-7.74l-.15-4.22Z" transform="translate(-138.13 -298.37)"/><path class="b" d="M635.58,528.3c0,9,1.13,9,6.76,9h8.3c3.94,0,9.14-.42,12.38-8h2.53L663,539.69H617.15v-2.39c6.47-.57,8.86-1.27,8.86-9.29V497.48c0-7.74-2.4-8.58-8.87-9.14v-2.4h45l.85,10.13h-2.54c-1.55-7.74-7.31-7.74-12.1-7.74h-12.8v23.08h9.57c8.16,0,8.58-4.36,8.86-7.32h2.39V522H654c-.28-3.09-.42-7.31-8.86-7.31h-9.57Z" transform="translate(-138.13 -298.37)"/><path class="b" d="M704,528c0,8.16,3.1,8.72,8.73,9.28v2.4H685.12V537.3c5.76-.57,8.86-1.13,8.86-9.29V489.45h-8.45c-9.29,0-10.13,7.32-10.55,10.42h-2.25l.42-16.61h2.39c2.11,1.69,3.52,2.68,8.3,2.68H714.1c4.78,0,6.19-1,8.3-2.67h2.39l.43,16.6H723c-.42-3.09-1.26-10.41-10.55-10.41H704Z" transform="translate(-138.13 -298.37)"/><path class="b" d="M734.39,528.85a10.32,10.32,0,0,0-.84,3.66c0,3.65,4.08,4.5,5.77,4.78v2.39H721.87v-2.39c5.21-1.13,6.61-2.25,10-11.54l15.19-40.81h7.6l15.06,41.23c3.1,8.44,4.37,10.55,11.12,11.11v2.4H755.64v-2.39c3.1-.28,6.34-.71,6.34-3.66a10.8,10.8,0,0,0-1-3.8l-4.08-11.4H738.19Zm21.25-14.08-8-22.23-8.3,22.24Z" transform="translate(-138.13 -298.37)"/><path class="b" d="M810.66,531.09c0,4.5,1.55,5.49,6.62,5.49h9.85c6.75,0,7.46-1.55,11.68-11.83h2.53L837,539.67H792.23v-2.4c5.77-.56,8.87-1.13,8.86-9.28V497.46c0-8-3.1-8.58-8.87-9.15v-2.39h27.3v2.39c-6.75.56-8.86,2-8.86,9.15Z" transform="translate(-138.13 -298.37)"/><path class="b" d="M869.34,531.08c0,4.5,1.55,5.49,6.62,5.49h9.85c6.75,0,7.46-1.55,11.68-11.82H900l-4.36,14.92H850.91v-2.39c5.77-.57,8.86-1.13,8.86-9.29V497.45c0-8-3.1-8.58-8.86-9.14v-2.4H878.2v2.39c-6.75.57-8.86,2-8.86,9.15Z" transform="translate(-138.13 -298.37)"/><path class="a" d="M189.84,414.28a11.57,11.57,0,0,0-1.41-.72c1.39-.16,2-.09,1.41.72" transform="translate(-138.13 -298.37)"/><path class="a" d="M169.38,411.31c3.43.25,9,.53,12.37,2.49a46.72,46.72,0,0,1-7.12.9c-2.62,0-5-.77-5.25-3.39" transform="translate(-138.13 -298.37)"/><path class="a" d="M190.27,426.27l-6.24-2.5c3.78-1.82,3,1.66,6.24,2.5" transform="translate(-138.13 -298.37)"/><polygon class="a" points="50.12 120.91 50.57 118.22 53.8 120.98 50.12 120.91"/><path class="c" d="M489.61,341.42a6,6,0,0,1-2.47-3.35Z" transform="translate(-138.13 -298.37)"/><path class="c" d="M508.06,346a17.38,17.38,0,0,0,3-.67c-.71.58-1.5.67-3,.67" transform="translate(-138.13 -298.37)"/><path class="c" d="M478.63,348.06l2.05-1.4a3.69,3.69,0,0,1-2.05,1.4" transform="translate(-138.13 -298.37)"/><path class="c" d="M332.16,397.47c-2.57-1.6-5-3.18-6.82-4.18,4.27-2.57,5.2,1.79,6.82,4.18" transform="translate(-138.13 -298.37)"/><path class="c" d="M581.29,360.09v-2.25c.83.8,1.34,1.67,0,2.25" transform="translate(-138.13 -298.37)"/><path class="c" d="M527.09,377a7.23,7.23,0,0,1-1-2.7c.28.07.57.07.87.16Z" transform="translate(-138.13 -298.37)"/><path class="c" d="M471.63,356.24c0,.09,0,.16,0,.27l-2.4-.43c.81-.8,1.59-.73,2.41.16" transform="translate(-138.13 -298.37)"/><path class="c" d="M599.64,359.27a18.63,18.63,0,0,1,3,4.27,4.72,4.72,0,0,1-3-4.27" transform="translate(-138.13 -298.37)"/><path class="c" d="M511.4,345.13s0,.06.06.07a2,2,0,0,1-.39.1c.11-.09.23-.09.33-.17" transform="translate(-138.13 -298.37)"/><path class="c" d="M507.53,384.08c1.18-.17,2.22-.4,3.48-.48a2.82,2.82,0,0,1-3.48.48" transform="translate(-138.13 -298.37)"/><path class="c" d="M332.16,397.47c.74.45,1.45.89,2.19,1.37a2.42,2.42,0,0,1-2.19-1.37" transform="translate(-138.13 -298.37)"/><path class="a" d="M206.69,409.86c2,0,2.46,1.56,2.81,3.14a8.57,8.57,0,0,1-2.81-3.14" transform="translate(-138.13 -298.37)"/><path class="c" d="M875.24,448.12l.22.87a1.12,1.12,0,0,1-.22-.87" transform="translate(-138.13 -298.37)"/><path class="c" d="M839.18,373a7,7,0,0,1,.59-2c.9.2.41,1.16-.59,2" transform="translate(-138.13 -298.37)"/><path class="c" d="M602.92,355.63s-.74,0-1.45,0l-1.44,0a1.42,1.42,0,0,1-1.83.08l1.83-.08c1.3-1,2-3.62,2.89-.08" transform="translate(-138.13 -298.37)"/><path class="c" d="M322.59,426l5.27.1c-1,.52-5-.92-3.15,1.58-.8-.3-2.66-.06-2.12-1.68" transform="translate(-138.13 -298.37)"/><polygon class="c" points="462.43 18.87 459.68 16.2 458.52 20.31 462.43 18.87"/><polygon class="c" points="503.79 14.24 499.18 12.33 498.86 13.14 503.51 15.05 503.79 14.24"/><path class="c" d="M690,344.09a4.71,4.71,0,0,1-.72-.82,2.83,2.83,0,0,1,.72.82c1.43,1.49,2.57.52,3.63,0s2-.5,2.88,3c-1.77,2.64-3,2.6-4,1.44s-1.75-3.28-2.55-4.52" transform="translate(-138.13 -298.37)"/><path class="c" d="M608.31,346.89c.32,1.92,1.66,2.83,3.16,3.64s3.14,1.45,4,2.69c1.92-1.05-1.25-4.1-2.29-6.29,1-.54,1.7-.27,3.18.32-.89-4-1.75-3.17-3-1.83s-2.75,3.2-5.09,1.47" transform="translate(-138.13 -298.37)"/><polygon class="c" points="384.76 74.28 385.55 73.43 380.63 72.48 384.76 74.28"/><path class="c" d="M504.16,377.57c-4.27-3.45-9.18-.06-13.39.72.83,4.32,6.83,7,11,4.42,6.77.87-1-6.87,2.39-5.14" transform="translate(-138.13 -298.37)"/><path class="c" d="M656.44,336.05c-1.47-.7-3.25-3.18-5.4-4.88s-4.65-2.58-7.33-.07l4.4,2-1,.48,1.26,3.38c-1.64-9.18,5.6-1.17,8.08-.92" transform="translate(-138.13 -298.37)"/><path class="c" d="M464.87,392.57c-5.06-1.22-13.43-2.25-13.91-5.78,1.92,6.3,8.7,7.06,10.47,6.34.89-.77,1.77-.72,3.44-.56" transform="translate(-138.13 -298.37)"/><path class="c" d="M461.07,386.17c1.8-1.55-.53-5.2,4.44-3.88.64,3.5,5.34,10.71,9.9,5.8-6.7-3.88-8.19-6.49-14.86-7.13Z" transform="translate(-138.13 -298.37)"/><path class="c" d="M473.31,395.74l2-1.81c1.73-3.66-.71-10.73,6.06-5.57l-3,2.81-3.06,2.76a3,3,0,0,1-2,1.81" transform="translate(-138.13 -298.37)"/><path class="c" d="M423.53,411.87l1.51.78,1.51.76c-2.47.42-3-.49-3-1.54L421,410.5c4.72-3.63,2.55-.74,2.52,1.37" transform="translate(-138.13 -298.37)"/><path class="c" d="M468.06,396.28l-3.55,1c-1.77.53-3.56,1-3.56,1,1.94-1.55,5.57-4.76,7.11-2" transform="translate(-138.13 -298.37)"/><path class="c" d="M423.62,405.8c2.82-1.22,10.21-4.2,9.25-3.5.3,3.53-6.91,4.84-9.25,3.5" transform="translate(-138.13 -298.37)"/><polygon class="c" points="132.82 125.43 134.71 120.67 130.27 120.55 132.82 125.43"/><polygon class="c" points="178.07 115.2 180.65 115.25 181.47 112.81 178.07 115.2"/><path class="c" d="M366.67,404.31a6.46,6.46,0,0,0,.85,3.26,3.4,3.4,0,0,1,2,1.66c-.66.14-1.43-.62-2-1.66a5.41,5.41,0,0,0-5.83,1.92c1.15,2.13,4,1.22,5.41,2.54-1.71,3.06-5.74.94-8.6-.06s-4.62-.88-2,6.7c-2.16-1.56-9.05-4.85-7.27-7.85a19.41,19.41,0,0,0,4.42-.39,33.6,33.6,0,0,0,5-1.45c3.33-1.24,6.41-2.92,8-4.67a1.84,1.84,0,0,1,1.19-1.85,4.61,4.61,0,0,1-1.19,1.85" transform="translate(-138.13 -298.37)"/><path class="c" d="M428.36,387.51c1.84-.1,2.71.09,3.2.5a5.06,5.06,0,0,1,3.63,4.22c-4.16-.72-2.35-3.14-3.63-4.22a7.3,7.3,0,0,0-3.2-.5" transform="translate(-138.13 -298.37)"/><path class="c" d="M426,380.94l1.59.61,3.48,1.25,5.12,1.8-3.82-2.41,3.22.58,2.22.39,1,.16a9.63,9.63,0,0,0-5.75-4.26,6.7,6.7,0,0,0-7.07,1.88" transform="translate(-138.13 -298.37)"/><path class="c" d="M439.85,379.79l2.31,3.19-3-3.07.64-.12-.52-.73,4.95-.51c1.24-.12,2.48-.28,3.4-.41l1.55-.2-1.46.31c-.88.19-2,.45-3.23.66l-4.69.88" transform="translate(-138.13 -298.37)"/><path class="c" d="M534.59,346c-1.64-13.5-11.82-4.95-16.21-9.76,1.43,4.18.88,11.84,9.66,7.68-2.94,3.7-5,2.37-6.35,1.57s-2-1-1.91,5c3.27-2.48,9.07-1.41,9.84-1.33,0,0-1,.57-2,1.18l-2,1.19c2.91,3.11,4.08,1.44,5.12-.83s1.89-5.22,3.92-4.67" transform="translate(-138.13 -298.37)"/><path class="c" d="M582.3,328l3-.09,2.05-.07h.93l-1,.13-2.1.35-3.06.5Z" transform="translate(-138.13 -298.37)"/><path class="c" d="M734.91,324a3.45,3.45,0,0,1,1.71-2.19,8.56,8.56,0,0,1,3.41-1.21c2.47-.31,5,.54,5,3.58-4.23-.45-8.45-2.19-10.09-.18" transform="translate(-138.13 -298.37)"/><path class="c" d="M794.34,354s-.24-.41-.65-1l-1.48-2.11-2.2-3.1c2.54-2.49,3.86-1.48,4.93.23.54.87,1,1.88,1.57,2.79a3.92,3.92,0,0,0,2,2c-1.17,3.46-1.88,0-4.15,1.21" transform="translate(-138.13 -298.37)"/><path class="c" d="M827.53,385.68l.52,2.46s1-1.55,2-3.11l1.92-3.14Z" transform="translate(-138.13 -298.37)"/><path class="c" d="M832.53,371c1.11.66,3.35,5.5,0,6.38l0-3.17,0-3.21" transform="translate(-138.13 -298.37)"/><path class="c" d="M856.55,412.73l2-2.71,2-2.75,2,2.51Z" transform="translate(-138.13 -298.37)"/><path class="c" d="M851.33,412.27c.15-1.13,1.16-2.17,2.39-3.18a5.21,5.21,0,0,0-3.23-6.16c-2.38,2,.26,2.53.45,4.26-1-.78-3.61-1.32-3.87-3.85,6-.73,4.94-2.32,9-4.56,6.4,4.62,1,7.47-2.37,10.31a5.33,5.33,0,0,1-2.39,3.18" transform="translate(-138.13 -298.37)"/><path class="c" d="M835.7,390.84a4.69,4.69,0,0,0-2.8-.44l.67-1c2.16-.49,2.32.43,2.13,1.48a24.56,24.56,0,0,1,3.3,1.74c3.62-1.66,3-7.2,3.83-9.55.58,2.55-1.37,6.44,2.37,7.54.7-1,1.56-1.15.36-2.7l3.23,3C847,398,843.09,395,839,392.58a5.59,5.59,0,0,1-3,.57c-.86-.22-.47-1.32-.31-2.31" transform="translate(-138.13 -298.37)"/><path class="c" d="M849.06,417.51c-.81.9-2.52,1.05-3.32,2.76l0,2.44c3.45,1.44,4.23-2.73,3.28-5.2" transform="translate(-138.13 -298.37)"/><path class="c" d="M752.11,338.16c1.8-.57.41-6-3.1-6.1l1.84-2.4c.94-1.19,1.87-2.39,1.87-2.39-.65,1.82.62,3.21,2.12,4.23a19.19,19.19,0,0,0,2.2,1.26,5.21,5.21,0,0,1,1.26.79c-1.08,5.42-2.5,2.2-6.19,4.61" transform="translate(-138.13 -298.37)"/><path class="c" d="M592.06,326.26c1.08.79,3.47-.32,5.92-.65s4.92.05,6,3.58c1.62-8.46-8-5.39-12-2.93" transform="translate(-138.13 -298.37)"/><path class="c" d="M592.59,334.43a9.18,9.18,0,0,0-2.1.07c-2.75-1.09-3.66-6.84-7.31-2.76,1.39,1.25,2.74-1,4.11.24.51,3.66,1,2.81,3.2,2.52a2.54,2.54,0,0,0,2.1-.07" transform="translate(-138.13 -298.37)"/><path class="c" d="M677.65,327.59l1.42,2.69,1.4,2.7,2.25-.23a13.53,13.53,0,0,1,1.55-.11l.7,0-1.12-.84c-.67-.49-1.58-1.09-2.5-1.71l-3.7-2.47" transform="translate(-138.13 -298.37)"/><path class="c" d="M724,342.87c.38-3.09,5.32-1.93,5.92-.2.79-4-2.68-4.32-5.21-5.4a2.53,2.53,0,0,0-1.62-1,5.33,5.33,0,0,0,1.62,1c.76,1.17-.43,3-.77,4.39l-1.56.83,3.27,2Z" transform="translate(-138.13 -298.37)"/><path class="c" d="M791.93,383.65c4.25-.38,3.73.77,4.35,2.9-1.55.71-3.67-.76-4.35-2.9" transform="translate(-138.13 -298.37)"/><path class="c" d="M699.26,342c2.57-.69,2.19-2.28,1.55-3.91s-1.53-3.27.27-4.05l-2.73.08c4.85-3.74,2.56,4.95,5.7,4.11l-2.11.56c-2.05,3.66,2.71,3,2.63,6.1-2.47,1.32-7.33-2.32-5.31-2.89" transform="translate(-138.13 -298.37)"/><path class="c" d="M793.42,388.66c3.08.22,3.08,1.65,2.45,3.31s-1.89,3.59-1.19,4.85c-5-.18.55-4.89-1.26-8.16" transform="translate(-138.13 -298.37)"/><polygon class="c" points="590.99 64.2 590.48 64.86 587.72 61.59 588.2 60.95 590.99 64.2"/><path class="c" d="M826.78,364.44a4.32,4.32,0,0,1,2.28,2.25,9,9,0,0,1-2.28-2.25" transform="translate(-138.13 -298.37)"/><path class="c" d="M571.39,310.34a2.38,2.38,0,0,1-.82,2.21,3,3,0,0,1,.82-2.21" transform="translate(-138.13 -298.37)"/><path class="c" d="M559.66,310.78c-.15,0-.29.08-.43.1s-.3-.17-.44-.25Z" transform="translate(-138.13 -298.37)"/><path class="a" d="M210,404.84c-2.16-5,2.17-.78,4-.8-1.78,0-2.53,3.51-4,.8" transform="translate(-138.13 -298.37)"/><path class="a" d="M138.72,416.61c-2.16-5,2.18-.78,4-.81-1.78,0-2.54,3.51-4,.81" transform="translate(-138.13 -298.37)"/><path class="a" d="M224.19,413.2a7.68,7.68,0,0,0-4.51-2.92c1.19-.15,2.46.39,4.51,2.92" transform="translate(-138.13 -298.37)"/><path class="a" d="M212.5,411a12.46,12.46,0,0,1,7.18-.72c-1.82.21-3.4,2.1-7.18.72" transform="translate(-138.13 -298.37)"/><path class="a" d="M262.75,410.77c-2.39-2.93-6.63-1.12-6.63-1.12,9.26-3.32-2.14-5.66-3-8,5.83.83,6,4.65,9.61,9.08" transform="translate(-138.13 -298.37)"/><path class="c" d="M275.3,411.67a5.47,5.47,0,0,0-2.58.78,2.73,2.73,0,0,1,2.58-.78" transform="translate(-138.13 -298.37)"/><path class="c" d="M272.49,405.18c3.31.49,4.69,3.88,6.37,6.44-3.78,2.76-6.7-2.58-9.7-3.22,2.33-.23,4.61,0,3.33-3.22" transform="translate(-138.13 -298.37)"/><path class="c" d="M375.06,379.86c-.81-.24-2.59.13-3-1.75l5.37-1.13c2.39.69-1.37,2.26-2.36,2.88" transform="translate(-138.13 -298.37)"/><path class="a" d="M147.87,415.89c4.89.36,12.79.77,17.65,3.57-2.23.26-6.4,1.33-10.16,1.28s-7.11-1.11-7.49-4.85" transform="translate(-138.13 -298.37)"/><path class="a" d="M161.56,405.22c-2.17-5,2.17-.78,4-.81-1.78,0-2.53,3.51-4,.81" transform="translate(-138.13 -298.37)"/><path class="a" d="M234.66,406.76c-2.39-2.93-6.63-1.12-6.63-1.12,9.26-3.32-2.14-5.66-3-7.95,5.83.82,6,4.65,9.61,9.07" transform="translate(-138.13 -298.37)"/><path class="a" d="M250.54,399.41c3.31.49,4.7,3.88,6.38,6.44-3.79,2.76-6.71-2.58-9.71-3.22,2.33-.23,4.61,0,3.33-3.22" transform="translate(-138.13 -298.37)"/><path class="a" d="M188.18,410.24c-.81-.24-2.59.14-3-1.75l5.37-1.13c2.39.69-1.37,2.27-2.36,2.88" transform="translate(-138.13 -298.37)"/><path class="c" d="M396.51,385.18c4.24-.63,1-5,3.36-4.38l1.17,6.47Z" transform="translate(-138.13 -298.37)"/><path class="c" d="M400.66,418.29l-1.38-.41,1.47,0Z" transform="translate(-138.13 -298.37)"/><path class="c" d="M412.47,377.49l-4.61-6.37c3.82,1,5.36,6.57,4.61,6.37" transform="translate(-138.13 -298.37)"/><path class="a" d="M175.38,423.93l-4.6-6.38c3.82,1,5.36,6.57,4.6,6.38" transform="translate(-138.13 -298.37)"/><path class="c" d="M428.73,365.08l-3-1.47,3.92,0c2,0,3.91-.1,3.91-.1s-1.2.44-2.42.82l-2.45.79" transform="translate(-138.13 -298.37)"/><path class="c" d="M447.79,362.36l.09-1.68,5.5-.16-2.79.93c-1.39.48-2.8.91-2.8.91" transform="translate(-138.13 -298.37)"/><path class="c" d="M662.39,306.75c1,6.16-7.8,3.79-10.4,5.59.72-3.92,2.61-3.41,4.57-2.8s4.2,1.15,5.83-2.79" transform="translate(-138.13 -298.37)"/><path class="a" d="M154.84,406c1,6.16-7.79,3.79-10.4,5.59.73-3.91,2.61-3.4,4.58-2.8s4.2,1.16,5.82-2.79" transform="translate(-138.13 -298.37)"/><path class="c" d="M818.92,360.65l-.86-1.13c-.53-.68-1.2-1.62-1.94-2.49l-3-3.5c3.46,1.4,3.84,1.74,3.9,2.42s-.21,1.74,1.85,4.7" transform="translate(-138.13 -298.37)"/><path class="b" d="M222.85,593.56c-1.76,2-7,3.06-15.55,3.05h-26v-4.5l27.22,0c4.72,0,7.08-.6,7.08-1.77V588.8c0-1.25-2.66-1.89-8-1.9H196a30.81,30.81,0,0,1-9.49-1.29c-3.45-1.05-5.21-2.61-5.2-4.65v-1.66c0-2.68,2.12-4.5,6.23-5.44a58.34,58.34,0,0,1,11.62-.86h5.68v4.42h-6.71c-5.63,0-8.47.6-8.47,1.85v1.36c0,1.13,3,1.74,8.95,1.74h8.77A42,42,0,0,1,218,583.51c4,1.06,5.92,2.68,5.92,5v.83a4.56,4.56,0,0,1,.06.8,5,5,0,0,1-1.09,3.47" transform="translate(-138.13 -298.37)"/><path class="b" d="M258.13,594.94a6.88,6.88,0,0,1-4.66,1.59,6.48,6.48,0,0,1-4.6-1.59l-24.43-22.16h9.38l20,17.7,19.49-17.67h9.8Z" transform="translate(-138.13 -298.37)"/><path class="b" d="M299.63,596.52a34.25,34.25,0,0,1-10.1-1.29c-3.69-1.1-5.51-2.73-5.5-4.88V579.2c0-2.27,1.94-3.93,5.69-5a38,38,0,0,1,10.47-1.24h8.47v4.42h-8.05c-5.51,0-8.29.6-8.29,1.85v3.36l34,0v4.5l-33.93,0v3.13c0,1.21,2.48,1.82,7.51,1.82l26.43,0v4.49Z" transform="translate(-138.13 -298.37)"/><polygon class="b" points="215.6 279.02 215.59 298.29 207.24 298.28 207.25 279.01 190.37 279 190.38 274.58 232.54 274.6 232.54 279.03 215.6 279.02"/><path class="b" d="M414.52,593.68c-1.75,2-6.95,3.05-15.54,3.05l-26,0v-4.49h27.23c4.72,0,7.08-.6,7.08-1.77v-1.55c0-1.25-2.66-1.89-8-1.89H387.67a31.19,31.19,0,0,1-9.5-1.29c-3.44-1.06-5.2-2.61-5.2-4.65V579.4c0-2.68,2.12-4.49,6.24-5.44a58.3,58.3,0,0,1,11.61-.86h5.69v4.42h-6.72c-5.62,0-8.47.6-8.47,1.85v1.36c0,1.14,3,1.74,8.95,1.75H399a41.91,41.91,0,0,1,10.59,1.14c4,1.06,5.93,2.69,5.92,5,0,.19,0,.46,0,.84a5.71,5.71,0,0,1,.06.79,5.06,5.06,0,0,1-1.1,3.48" transform="translate(-138.13 -298.37)"/><path class="b" d="M446.23,596.6H436a44.57,44.57,0,0,1-11.31-1.22c-4.11-1.1-6.16-2.91-6.16-5.37V579.62c0-4.42,5.81-6.61,17.49-6.6h10.22a49.83,49.83,0,0,1,11.68,1c3.93,1,5.93,2.88,5.92,5.64V590c0,4.39-5.88,6.61-17.61,6.6m9.26-16.85c0-1.54-3-2.3-9.07-2.31H436c-6.11,0-9.14.75-9.14,2.3V589.9c0,1.48,3,2.2,9.13,2.2h10.4c6,0,9.08-.72,9.08-2.19Z" transform="translate(-138.13 -298.37)"/><path class="b" d="M521.07,596.76V581.65l-17.79,13.66a7.55,7.55,0,0,1-4.84,1.48,8,8,0,0,1-4.9-1.48l-18.08-13.77v15.19H467.1l0-21a2.08,2.08,0,0,1,1.27-1.89,6.41,6.41,0,0,1,3.21-.72,7.62,7.62,0,0,1,4.59,1.25l22.32,16.57,21.85-16.54a7,7,0,0,1,4.41-1.28,6.54,6.54,0,0,1,3.39.79,2.35,2.35,0,0,1,1.27,2v20.83Z" transform="translate(-138.13 -298.37)"/><path class="b" d="M548.12,596.67a34.56,34.56,0,0,1-10.1-1.3c-3.69-1.09-5.51-2.72-5.5-4.88V579.35c0-2.27,1.94-3.93,5.69-5a38.28,38.28,0,0,1,10.47-1.24h8.47v4.42h-8c-5.51,0-8.29.59-8.29,1.84v3.36l34,0v4.49l-33.93,0v3.14c0,1.21,2.47,1.81,7.49,1.82H574.8v4.5Z" transform="translate(-138.13 -298.37)"/><polygon class="b" points="464.09 279.16 464.07 298.44 455.73 298.43 455.74 279.16 438.86 279.15 438.86 274.73 481.03 274.75 481.02 279.17 464.09 279.16"/><path class="b" d="M668.28,596.93l-6.9-6.13-25.77,0-6.78,6.12H619L644,574.8a6.72,6.72,0,0,1,4.66-1.62,6.61,6.61,0,0,1,4.65,1.59l24.37,22.16Zm-20-17.7-7.81,7.06H656.3Z" transform="translate(-138.13 -298.37)"/><path class="b" d="M696.35,596.75a58.13,58.13,0,0,1-12-1c-4.3-1-6.42-2.84-6.42-5.56V573.05h8.36l0,17.2c0,.94,1.39,1.55,4.3,1.85,1.21.12,3.27.15,6,.16h20.69v4.5Z" transform="translate(-138.13 -298.37)"/><path class="b" d="M738.7,596.78a59.59,59.59,0,0,1-12-.95c-4.3-1-6.42-2.84-6.41-5.56v-17.2h8.35v17.19c0,1,1.39,1.55,4.29,1.86,1.21.11,3.27.15,6,.15H759.7v4.5Z" transform="translate(-138.13 -298.37)"/><path class="b" d="M770.47,596.12a8.94,8.94,0,0,1-3.39.64,8.16,8.16,0,0,1-3.39-.61c-1-.49-1.57-1.13-1.57-1.93s.55-1.43,1.52-1.93a8.72,8.72,0,0,1,3.44-.64,8.24,8.24,0,0,1,3.39.69c1.09.53,1.64,1.17,1.64,1.92s-.55,1.37-1.64,1.86" transform="translate(-138.13 -298.37)"/><path class="b" d="M798.72,596.81H774.34v-4.39l24.38,0c3.33,0,5-.41,5-1.24v-.65c0-.72-1.45-1.06-4.41-1.06H789.17q-14.88,0-14.88-5.45v-.95c0-2.12,1.64-3.59,4.91-4.34a42.92,42.92,0,0,1,9.25-.75h8v4.39h-7.75c-4.29,0-6.47.3-6.47.83V584c0,.53,1,.87,3,1,.55,0,1.87.07,3.93.07h10.35c8.29,0,12.4,1.78,12.4,5.34v.79c0,3.74-4.36,5.63-13.2,5.62" transform="translate(-138.13 -298.37)"/><path class="b" d="M822.81,589.87c0,1.74,3.93,2.61,11.73,2.62.49,0,1.16,0,1.88,0h1.39v4.39H832c-6.65,0-11.19-.61-13.67-1.78s-3.81-2.69-3.81-4.39v-6.5c0-2.23,1.88-3.89,5.63-4.94A36.31,36.31,0,0,1,830.38,578h11.67a30,30,0,0,1,8.78,1.14c3.08,1,4.65,2.42,4.65,4.31v6.42Zm24.8-5.91c0-1.06-2.17-1.63-6.53-1.63H829.47c-4.6,0-6.9.52-6.9,1.58v1.48h25Z" transform="translate(-138.13 -298.37)"/></svg>